<svg width="1920" height="1294" viewBox="0 0 1920 1294" fill="none" xmlns="http://www.w3.org/2000/svg">
<g clip-path="url(#clip0_167_13440)">
<path d="M2012.26 -364.534C2066.37 -360.305 2099.38 -326.393 2119.39 -275.935C2151.41 -195.21 2077.93 -138.049 2012.41 -81.124C1947.17 -24.4419 1866.53 -63.6257 1805.55 -2.38891C1732.36 71.1035 1806.5 178.275 1735.42 253.808C1685.9 306.43 1627.51 294.053 1571.55 339.769C1517.53 383.9 1513.95 436.131 1457.72 477.412C1426.04 500.665 1392.15 493.355 1369.19 525.244C1357.87 540.97 1360.39 554.75 1349.55 570.809C1334.15 593.619 1312.81 594.871 1296.1 616.742C1280.13 637.656 1284.02 657.607 1266.61 677.337C1253.42 692.276 1238.88 692.937 1225.8 707.977C1211.25 724.729 1211.7 739.804 1199.57 758.394C1185.6 779.818 1157.84 808.863 1157.84 808.863L1151.71 803.8C1151.71 803.8 1176.76 775.224 1187.86 753.859C1199.74 730.996 1192.6 711.369 1208.7 691.26C1220.69 676.294 1235.76 676.701 1248.24 662.149C1266.28 641.129 1257.45 618.12 1274.41 596.227C1287.44 579.405 1303.95 578.657 1316.21 561.263C1331.22 539.969 1320.45 518.651 1335.52 497.398C1358.79 464.589 1397.41 478.705 1428.64 453.364C1484.4 408.12 1455.71 336.224 1508.8 287.875C1558.28 242.811 1617.7 268.053 1667.67 223.536C1752.83 147.687 1659.99 25.1579 1735.14 -60.6114C1788.17 -121.129 1858.65 -104.168 1914.46 -162.129C1975.34 -225.366 1924.7 -371.377 2012.26 -364.534Z" fill="#AEF8FF"/>
<path d="M1587.66 -584.373C1638.16 -599.511 1679.95 -580.362 1715.76 -541.67C1773.06 -479.77 1726.54 -402.232 1687.14 -327.699C1647.91 -253.485 1561.13 -260.714 1527.36 -183.865C1486.82 -91.6374 1591.55 -20.5463 1553.64 72.7914C1527.23 137.816 1469.99 147.073 1435.33 208.1C1401.87 267.013 1416.93 315.581 1380.47 372.685C1359.92 404.851 1326.66 410.112 1317.04 447.045C1312.3 465.258 1319.41 476.857 1315.22 495.204C1309.27 521.265 1290.37 529.881 1282.91 555.549C1275.77 580.094 1286.29 596.801 1277.43 620.778C1270.72 638.932 1257.78 644.63 1251.21 662.835C1243.89 683.113 1249.59 696.611 1245.12 717.7C1239.98 742.004 1225 778.048 1225 778.048L1217.68 775.608C1217.68 775.608 1230.36 740.942 1232.92 717.697C1235.67 692.823 1222.32 677.547 1229.86 653.686C1235.47 635.929 1249.26 631.015 1255.47 613.457C1264.44 588.095 1248.37 570.348 1256.07 544.57C1261.98 524.762 1276.66 518.299 1281.67 498.245C1287.81 473.694 1270.58 458.158 1276.78 433.624C1286.35 395.749 1326.28 394.998 1345.69 361.095C1380.35 300.564 1329.15 245.496 1360.3 183.088C1389.33 124.921 1451.99 126.961 1481.66 69.117C1532.21 -29.441 1405.16 -107.89 1443.17 -211.927C1469.99 -285.335 1539.78 -294.675 1570.02 -366.742C1603 -445.368 1505.95 -559.878 1587.66 -584.373Z" fill="#AEF8FF"/>
<path d="M1219.34 -655.165C1263.76 -683.558 1309.19 -676.589 1354.24 -649.188C1426.3 -605.353 1402.8 -518.035 1385.32 -435.561C1367.93 -353.44 1282.49 -336.619 1271.05 -253.458C1257.33 -153.654 1377.53 -113.971 1366.64 -13.8188C1359.05 55.9538 1306.55 80.534 1289.92 148.723C1273.88 214.549 1301.67 257.132 1282.25 322.042C1271.3 358.604 1240.75 372.777 1241.62 410.931C1242.05 429.746 1252.07 438.953 1253.06 457.747C1254.47 484.442 1238.66 497.904 1238.51 524.636C1238.37 550.198 1253.07 563.382 1251.12 588.869C1249.64 608.167 1238.75 617.193 1237.42 636.501C1235.94 658.007 1245.11 669.429 1246.59 690.935C1248.3 715.718 1243.78 754.485 1243.78 754.485L1236.07 754.144C1236.07 754.144 1238.76 717.333 1234.86 694.274C1230.69 669.6 1213.66 658.565 1214.38 633.551C1214.91 614.935 1226.83 606.432 1227.99 587.845C1229.67 560.996 1209.35 548.329 1209.69 521.43C1209.95 500.76 1222.31 490.521 1221.63 469.861C1220.8 444.569 1199.98 434.347 1199.22 409.052C1198.05 370.004 1236.25 358.344 1245.63 320.42C1262.38 252.712 1198.05 213.775 1210.91 145.223C1222.89 81.3288 1283.72 66.1231 1296.41 2.3651C1318.03 -106.27 1174.35 -146.916 1182.41 -257.386C1188.09 -335.332 1252.65 -363.432 1261.99 -441.026C1272.17 -525.681 1147.46 -609.222 1219.34 -655.165Z" fill="#AEF8FF"/>
<path d="M929.639 -611.748C969.867 -645.824 1015.82 -644.99 1064.13 -623.857C1141.41 -590.048 1129.78 -500.372 1123.49 -416.302C1117.23 -332.592 1034.8 -304.502 1034.59 -220.559C1034.33 -119.816 1158.75 -96.5565 1161.35 4.15293C1163.15 74.3136 1114.41 105.692 1107.05 175.491C1099.95 242.871 1133.18 281.357 1122.61 348.281C1116.65 385.978 1088.26 404.108 1094.23 441.802C1097.17 460.391 1108.33 468.176 1111.82 486.668C1116.79 512.935 1102.92 528.39 1106.35 554.902C1109.62 580.254 1125.95 591.355 1127.42 616.875C1128.54 636.197 1118.95 646.597 1120.21 665.91C1121.62 687.421 1132.24 697.514 1136.58 718.629C1141.59 742.961 1142.29 781.985 1142.29 781.985L1134.6 782.677C1134.6 782.677 1132.35 745.837 1125.4 723.506C1117.97 699.611 1099.62 690.951 1096.99 666.066C1095.03 647.546 1105.7 637.526 1104.37 618.951C1102.44 592.119 1080.62 582.28 1077.35 555.577C1074.85 535.059 1085.72 523.26 1082.29 502.875C1078.09 477.921 1056.09 470.574 1051.96 445.608C1045.58 407.066 1081.88 390.405 1086.1 351.567C1093.65 282.228 1024.7 252.239 1028.28 182.583C1031.61 117.661 1089.86 94.461 1093.91 29.5794C1100.81 -80.9705 952.991 -102.046 946.209 -212.601C941.423 -290.608 1001.65 -327.086 1000.53 -405.231C999.309 -490.488 864.546 -556.609 929.639 -611.748Z" fill="#AEF8FF"/>
<path d="M617.164 -558.023C651.994 -597.602 697.581 -603.478 748.45 -589.614C829.832 -567.435 831.408 -477.022 837.443 -392.934C843.452 -309.205 766.005 -269.396 778.034 -186.319C792.47 -86.6156 918.954 -81.7476 936.206 17.5072C948.224 86.6545 904.571 124.806 907.47 194.932C910.269 262.627 948.762 295.855 948.058 363.606C947.661 401.769 922.222 423.844 933.618 460.266C939.238 478.227 951.413 484.302 957.57 502.087C966.315 527.348 954.847 544.661 962.101 570.39C969.038 594.993 986.81 603.595 991.987 628.627C995.907 647.58 987.942 659.266 992.008 678.189C996.537 699.264 1008.51 707.702 1015.89 727.957C1024.39 751.3 1030.77 789.805 1030.77 789.805L1023.27 791.61C1023.27 791.61 1015.67 755.492 1005.54 734.414C994.698 711.858 975.287 705.965 969.051 681.73C964.41 663.694 973.51 652.225 969.481 634.043C963.661 607.778 940.638 601.227 933.517 575.285C928.045 555.352 937.085 542.093 930.719 522.427C922.924 498.351 900.085 494.291 892.357 470.195C880.426 432.995 913.905 411.219 912.423 372.181C909.777 302.482 837.191 282.868 830.574 213.435C824.407 148.72 878.65 117.274 873.197 52.4954C863.904 -57.8792 714.59 -57.1744 691.76 -165.559C675.651 -242.034 729.911 -286.904 717.41 -364.051C703.771 -448.219 560.808 -493.983 617.164 -558.023Z" fill="#AEF8FF"/>
<path d="M281.71 -475.27C308.104 -520.909 351.654 -535.608 404.255 -531.987C488.406 -526.194 507.676 -437.844 530.08 -356.571C552.388 -275.645 484.248 -221.425 512.331 -142.318C546.034 -47.3803 671.018 -67.4042 707.394 26.5421C732.736 91.9913 697.41 137.96 714.001 206.157C730.017 271.99 774.278 297.026 786.87 363.601C793.962 401.101 773.345 427.735 791.661 461.216C800.693 477.727 813.823 481.297 823.347 497.529C836.875 520.586 829.023 539.811 841.181 563.619C852.807 586.384 871.921 591.335 881.905 614.866C889.464 632.683 883.945 645.704 891.642 663.462C900.215 683.241 913.611 689.167 924.816 707.583C937.729 728.806 951.535 765.312 951.535 765.312L944.532 768.553C944.532 768.553 929.997 734.627 915.932 715.943C900.881 695.95 880.691 693.977 869.825 671.435C861.738 654.659 868.412 641.628 860.897 624.589C850.041 599.975 826.18 598.065 814.112 574.023C804.838 555.549 811.103 540.775 801.004 522.738C788.641 500.658 765.449 501.155 753.147 479.041C734.155 444.903 762.714 416.986 753.607 378.995C737.348 311.168 662.326 306.165 642.224 239.377C623.489 177.127 670.515 135.657 652.467 73.2045C621.716 -33.2064 475.438 -3.24188 431.801 -105.047C401.012 -176.88 445.422 -231.516 418.039 -304.716C388.164 -384.576 239.002 -401.424 281.71 -475.27Z" fill="#AEF8FF"/>
<path d="M1.94313 -309.755C21.1046 -358.871 61.9196 -380.01 114.46 -384.414C198.516 -391.459 230.972 -307.058 265.452 -230.127C299.783 -153.524 240.662 -89.5897 280.426 -15.6623C328.148 73.0607 448.645 34.2995 498.858 121.637C533.839 182.481 505.899 233.28 532.649 298.168C558.472 360.808 606.019 378.836 628.569 442.728C641.271 478.717 624.936 508.172 648.121 538.485C659.554 553.434 673.074 554.97 684.951 569.569C701.822 590.305 696.979 610.499 712.609 632.186C727.555 652.923 747.199 654.915 760.639 676.659C770.815 693.122 767.336 706.83 777.639 723.214C789.115 741.462 803.255 745.287 817.126 761.789C833.11 780.806 852.296 814.794 852.296 814.794L845.867 819.06C845.867 819.06 826.351 787.733 809.613 771.4C791.702 753.923 771.446 755.038 757.285 734.406C746.746 719.052 751.365 705.159 741.35 689.457C726.885 666.777 703.01 668.51 687.433 646.578C675.462 629.725 679.413 614.172 666.693 597.877C651.122 577.929 628.274 581.94 612.758 561.949C588.805 531.089 612.796 499.161 598.029 462.993C571.664 398.419 496.751 404.86 466.746 341.897C438.78 283.212 478.967 235.084 451.65 176.095C405.104 75.5841 265.069 127.402 206.486 33.3993C165.151 -32.9281 200.754 -93.6718 162.579 -161.867C120.929 -236.268 -29.0616 -230.282 1.94313 -309.755Z" fill="#AEF8FF"/>
<path d="M-265.683 0.393205C-263.216 -52.2703 -231.293 -85.3404 -182.912 -106.298C-105.512 -139.827 -47.7936 -70.217 9.45539 -8.33145C66.4597 53.2895 30.8606 132.76 92.1578 190.111C165.723 258.94 267.523 183.716 343.005 250.435C395.591 296.917 385.343 353.979 431.42 406.922C475.901 458.03 526.716 459.924 568.496 513.264C592.029 543.309 585.959 576.439 617.613 597.758C633.223 608.271 646.525 605.407 662.443 615.446C685.055 629.707 686.916 650.39 708.656 665.947C729.443 680.823 748.695 676.435 768.376 692.746C783.278 705.096 784.361 719.196 799.358 731.43C816.062 745.057 830.683 744.163 849.098 755.37C870.32 768.284 899.359 794.362 899.359 794.362L894.629 800.459C894.629 800.459 866.128 777.007 845.05 766.878C822.494 756.039 803.656 763.565 783.646 748.539C768.754 737.356 768.692 722.715 754.187 711.036C733.234 694.165 711.164 703.434 689.396 687.628C672.669 675.482 671.444 659.482 654.186 648.104C633.058 634.176 612.689 645.275 591.599 631.289C559.042 609.698 571.577 571.779 546.029 542.223C500.417 489.456 431.487 519.491 382.94 469.412C337.692 422.736 360.399 364.293 315.668 317.121C239.452 236.747 123.309 330.585 37.7655 260.223C-22.5926 210.576 -8.2601 141.641 -66.2209 89.215C-129.456 32.0177 -269.675 85.6067 -265.683 0.393205Z" fill="#AEF8FF"/>
<path d="M-424.191 419.914C-437.91 369.009 -417.599 327.776 -377.92 293.056C-314.44 237.51 -238.235 286.191 -164.834 327.658C-91.7468 368.948 -101.401 455.491 -25.5286 491.405C65.5288 534.507 139.523 431.809 231.763 472.317C296.024 500.538 303.675 558.006 363.708 594.366C421.661 629.465 470.631 615.765 526.693 653.815C558.272 675.247 562.599 708.649 599.248 719.293C617.321 724.542 629.115 717.756 647.338 722.46C673.222 729.142 681.306 748.271 706.755 756.453C731.09 764.277 748.085 754.225 771.804 763.753C789.764 770.967 795.097 784.065 813.112 791.14C833.177 799.02 846.828 793.708 867.785 798.762C891.935 804.585 927.546 820.56 927.546 820.56L924.902 827.809C924.902 827.809 890.604 814.172 867.44 810.956C842.653 807.516 827.01 820.431 803.369 812.227C785.775 806.121 781.25 792.197 763.872 785.5C738.77 775.826 720.581 791.387 695.029 782.976C675.394 776.513 669.345 761.65 649.438 756.08C625.068 749.262 609.057 766.048 584.706 759.163C547.113 748.534 547.481 708.599 514.134 688.247C454.597 651.913 398.118 701.547 336.606 668.668C279.274 638.024 283.066 575.439 226.076 544.164C128.971 490.876 46.9969 615.677 -55.9357 574.769C-128.563 545.905 -135.947 475.885 -207.14 443.643C-284.811 408.466 -401.993 502.282 -424.191 419.914Z" fill="#AEF8FF"/>
<path d="M-502.729 915.481C-532.352 871.869 -526.653 826.259 -500.522 780.465C-458.716 707.204 -370.776 728.265 -287.846 743.427C-205.27 758.525 -186.071 843.462 -102.623 852.568C-2.47423 863.496 33.8365 742.238 134.254 750.329C204.211 755.965 230.248 807.765 298.875 822.476C365.123 836.677 406.914 807.705 472.34 825.312C509.194 835.23 524.215 865.376 562.329 863.44C581.124 862.485 590.048 852.214 608.807 850.695C635.452 848.537 649.351 863.968 676.077 863.371C701.632 862.8 714.401 847.74 739.933 848.98C759.264 849.919 768.59 860.551 787.929 861.341C809.467 862.22 820.629 852.733 842.085 850.65C866.811 848.25 905.689 851.69 905.689 851.69L905.563 859.406C905.563 859.406 868.691 857.744 845.75 862.286C821.202 867.147 810.647 884.471 785.623 884.455C767 884.443 758.167 872.767 739.554 872.126C712.669 871.2 700.574 891.856 673.676 892.271C653.007 892.59 642.427 880.524 621.794 881.776C596.535 883.309 586.898 904.41 561.635 905.874C522.634 908.133 509.912 870.276 471.741 861.959C403.592 847.11 366.466 912.494 297.582 901.556C233.378 891.362 216.48 830.982 152.393 820.081C43.196 801.506 6.57833 946.261 -104.074 941.292C-182.148 937.786 -212.04 874.038 -289.864 866.87C-374.771 859.05 -454.797 986.049 -502.729 915.481Z" fill="#AEF8FF"/>
<path d="M-407.08 1333.53C-447.322 1299.47 -454.075 1254.01 -441.193 1202.88C-420.585 1121.09 -330.22 1117.77 -246.263 1110.12C-162.666 1102.5 -121.372 1179.16 -38.5427 1165.54C60.8642 1149.18 63.2958 1022.63 162.2 1003.47C231.103 990.123 270.088 1033.03 340.145 1028.78C407.774 1024.68 440.255 985.557 508.006 984.956C546.17 984.618 568.731 1009.63 604.927 997.532C622.776 991.567 628.616 979.277 646.278 972.779C671.367 963.549 688.897 974.682 714.482 966.934C738.946 959.525 747.205 941.59 772.132 935.932C791.007 931.648 802.844 939.386 821.685 934.956C842.669 930.023 850.875 917.888 870.984 910.122C894.159 901.173 932.533 894.052 932.533 894.052L934.483 901.518C934.483 901.518 898.518 909.814 877.638 920.347C855.296 931.619 849.778 951.14 825.667 957.841C807.724 962.828 796.082 953.952 777.98 958.33C751.833 964.654 745.726 987.799 719.927 995.418C700.102 1001.27 686.671 992.49 667.131 999.234C643.211 1007.49 639.591 1030.4 615.648 1038.59C578.685 1051.24 556.269 1018.19 517.266 1020.42C447.631 1024.41 429.418 1097.36 360.125 1105.31C295.541 1112.72 263.057 1059.09 198.395 1065.79C88.2198 1077.21 91.7995 1226.48 -16.1257 1251.4C-92.2762 1268.97 -138.182 1215.59 -215.074 1229.57C-298.964 1244.83 -341.967 1388.65 -407.08 1333.53Z" fill="#AEF8FF"/>
<path d="M-317.399 1659.12C-363.417 1633.39 -378.749 1590.06 -375.894 1537.41C-371.326 1453.18 -283.267 1432.63 -202.328 1409.04C-121.736 1385.56 -66.529 1452.9 12.16 1423.67C106.597 1388.59 84.7562 1263.91 178.163 1226.17C243.236 1199.88 289.715 1234.53 357.663 1216.95C423.256 1199.98 447.645 1155.36 514.029 1141.8C551.422 1134.16 578.353 1154.39 611.564 1135.59C627.942 1126.31 631.32 1113.13 647.412 1103.37C670.269 1089.51 689.607 1097.08 713.235 1084.58C735.829 1072.62 740.501 1053.44 763.884 1043.11C781.589 1035.3 794.689 1040.63 812.333 1032.67C831.985 1023.81 837.716 1010.33 855.967 998.858C876.999 985.638 913.301 971.302 913.301 971.302L916.643 978.257C916.643 978.257 882.932 993.285 864.455 1007.62C844.684 1022.96 843.005 1043.18 820.623 1054.37C803.967 1062.7 790.84 1056.22 773.912 1063.98C749.459 1075.19 747.896 1099.08 724.032 1111.5C705.695 1121.04 690.832 1114.99 672.944 1125.35C651.046 1138.03 651.88 1161.21 629.948 1173.84C596.09 1193.32 567.76 1165.17 529.906 1174.83C462.323 1192.08 458.412 1267.16 391.924 1288.24C329.954 1307.88 287.803 1261.46 225.62 1280.41C119.668 1312.71 151.759 1458.54 50.5994 1503.65C-20.7774 1535.48 -76.0545 1491.87 -148.847 1520.32C-228.265 1551.35 -242.939 1700.74 -317.399 1659.12Z" fill="#AEF8FF"/>
<path d="M-169.278 1964.18C-219.622 1948.53 -243.584 1909.31 -251.679 1857.21C-264.63 1773.86 -182.726 1735.53 -108.415 1695.72C-34.4218 1656.08 33.5193 1710.55 104.461 1665.67C189.601 1611.82 142.446 1494.35 226.028 1438.11C284.256 1398.93 336.897 1423.22 399.739 1391.96C460.404 1361.79 475.037 1313.09 537.181 1286.09C572.186 1270.89 602.719 1285.11 631.323 1259.84C645.429 1247.39 646.008 1233.79 659.734 1220.91C679.23 1202.62 699.715 1206.03 720.247 1188.91C739.879 1172.54 740.482 1152.81 761.225 1137.87C776.93 1126.56 790.849 1129.06 806.466 1117.63C823.861 1104.9 826.679 1090.52 842.163 1075.52C860.007 1058.24 892.559 1036.71 892.559 1036.71L897.267 1042.82C897.267 1042.82 867.393 1064.49 852.28 1082.34C836.109 1101.44 838.648 1121.57 819.065 1137.15C804.492 1148.74 790.308 1145.11 775.351 1156.21C753.746 1172.24 757.157 1195.93 736.377 1213.01C720.41 1226.14 704.616 1223.3 689.259 1237.13C670.457 1254.07 676.068 1276.58 657.22 1293.47C628.124 1319.53 594.585 1297.85 559.548 1315.13C496.992 1345.98 508.696 1420.25 448.003 1454.62C391.434 1486.65 340.595 1449.96 283.677 1481.36C186.696 1534.87 248.252 1670.91 158.611 1735.97C95.3607 1781.88 32.2592 1750.64 -33.0765 1793.53C-104.358 1840.32 -87.8178 1989.51 -169.278 1964.18Z" fill="#AEF8FF"/>
<path d="M383.701 2228.76C331.391 2235.33 293.352 2209.52 264.436 2165.44C218.176 2094.9 276.9 2026.14 328.094 1959.16C379.069 1892.46 463.454 1913.96 509.488 1843.76C564.735 1759.52 473.223 1672.07 526.064 1586.3C562.877 1526.54 620.851 1526.89 665.142 1472.45C707.899 1419.89 701.083 1369.5 746.5 1319.22C772.083 1290.9 805.763 1291.22 821.359 1256.39C829.05 1239.21 823.956 1226.59 831.128 1209.19C841.315 1184.48 861.376 1179.11 872.99 1155.03C884.095 1132.01 876.483 1113.79 889.19 1091.61C898.812 1074.82 912.521 1071.34 922.012 1054.47C932.584 1035.69 929.206 1021.43 937.101 1001.37C946.2 978.257 966.932 945.189 966.932 945.189L973.747 948.808C973.747 948.808 955.511 980.897 949.132 1003.4C942.306 1027.47 952.94 1044.75 941.554 1067.03C933.08 1083.61 918.665 1086.18 909.636 1102.46C896.593 1125.99 909.497 1146.15 897.642 1170.3C888.533 1188.86 872.978 1192.8 864.716 1211.75C854.603 1234.94 869.019 1253.12 858.842 1276.29C843.131 1312.05 803.628 1306.18 778.872 1336.4C734.674 1390.36 776.045 1453.15 734.998 1509.54C696.739 1562.09 635.276 1549.71 596.44 1601.84C530.27 1690.67 642.574 1789.07 587.862 1885.38C549.258 1953.33 478.888 1950.99 437.136 2017.05C391.585 2089.13 468.344 2218.13 383.701 2228.76Z" fill="#AEF8FF"/>
<path d="M895.772 2275.25C848.911 2299.41 804.319 2288.27 762.003 2256.81C694.306 2206.49 725.797 2121.73 750.83 2041.23C775.756 1961.07 862.387 1952.23 881.469 1870.48C904.371 1772.38 788.365 1721.74 808.482 1623.02C822.497 1554.25 877.053 1534.64 899.917 1468.28C921.988 1404.23 898.256 1359.25 923.609 1296.42C937.89 1261.03 969.626 1249.74 972.291 1211.67C973.605 1192.9 964.482 1182.81 965.232 1164C966.297 1137.29 983.288 1125.35 985.911 1098.75C988.42 1073.31 975.006 1058.82 979.311 1033.62C982.57 1014.54 994.247 1006.56 997.358 987.462C1000.82 966.186 992.749 953.964 993.263 932.413C993.856 907.578 1001.95 869.396 1001.95 869.396L1009.59 870.45C1009.59 870.45 1003.51 906.854 1005.26 930.174C1007.13 955.129 1023.05 967.693 1020.03 992.533C1017.77 1011.02 1005.12 1018.38 1002.24 1036.78C998.087 1063.36 1017.14 1077.85 1014.31 1104.61C1012.14 1125.16 998.89 1134.21 997.65 1154.85C996.132 1180.11 1015.92 1192.21 1014.33 1217.47C1011.88 1256.46 972.768 1264.53 959.918 1301.43C936.975 1367.29 997.416 1412.02 978.267 1479.08C960.419 1541.59 898.445 1551.1 879.91 1613.41C848.328 1719.58 987.624 1773.35 969.374 1882.6C956.497 1959.69 889.615 1981.69 873.133 2058.09C855.151 2141.43 971.595 2236.16 895.772 2275.25Z" fill="#AEF8FF"/>
<path d="M2102.94 -56.0342C2154.23 -43.8245 2180.79 -6.31226 2192.39 45.1203C2210.96 127.402 2131.83 171.181 2060.39 215.934C1989.25 260.495 1917.78 210.749 1850.03 260.322C1768.73 319.816 1823.73 433.821 1744.15 495.592C1688.71 538.625 1634.54 517.952 1573.96 553.389C1515.48 587.598 1504.17 637.177 1444 668.317C1410.1 685.858 1378.68 673.738 1351.85 700.879C1338.62 714.263 1338.96 727.866 1326.14 741.642C1307.92 761.209 1287.25 759.196 1267.93 777.666C1249.45 795.327 1250.18 815.058 1230.5 831.366C1215.6 843.714 1201.54 842.158 1186.73 854.62C1170.24 868.501 1168.4 883.034 1153.97 899.046C1137.33 917.498 1106.31 941.186 1106.31 941.186L1101.2 935.406C1101.2 935.406 1129.54 911.759 1143.41 892.93C1158.25 872.781 1154.36 852.872 1172.84 836.003C1186.6 823.448 1200.99 826.108 1215.17 814.026C1235.64 796.572 1230.63 773.164 1250.2 754.713C1265.25 740.534 1281.2 742.303 1295.58 727.46C1313.19 709.288 1306.07 687.211 1323.73 669.088C1351 641.11 1385.93 660.472 1419.72 640.861C1480.04 605.848 1463.34 532.538 1521.56 494.142C1575.84 458.355 1629.04 491.526 1683.7 456.339C1776.84 396.386 1706.22 264.828 1791.25 193.849C1851.25 143.768 1916.32 170.66 1978.6 123.45C2046.55 71.9438 2019.95 -75.7903 2102.94 -56.0342Z" fill="#AEF8FF"/>
<path d="M2268.97 199.947C2316.63 222.468 2334.89 264.65 2335.64 317.37C2336.84 401.712 2250.39 428.237 2171.26 457.299C2092.46 486.236 2032.78 422.824 1956.27 457.366C1864.45 498.82 1894.76 621.715 1804.15 665.751C1741.03 696.429 1692.29 665.034 1625.7 687.219C1561.42 708.636 1540.14 754.819 1474.84 772.884C1438.06 783.06 1409.81 764.721 1377.96 785.748C1362.25 796.118 1359.78 809.498 1344.4 820.335C1322.54 835.727 1302.73 829.495 1280.01 843.584C1258.29 857.056 1254.94 876.515 1232.31 888.414C1215.19 897.424 1201.75 893.003 1184.69 902.145C1165.69 912.328 1160.9 926.169 1143.47 938.862C1123.39 953.489 1088.16 970.272 1088.16 970.272L1084.35 963.562C1084.35 963.562 1116.95 946.265 1134.41 930.7C1153.08 914.045 1153.38 893.76 1174.94 881.064C1190.99 871.615 1204.53 877.186 1220.88 868.285C1244.51 855.427 1244.44 831.49 1267.4 817.47C1285.04 806.697 1300.28 811.717 1317.42 800.158C1338.4 786.008 1335.98 762.936 1357 748.844C1389.45 727.088 1419.64 753.236 1456.74 741.012C1522.99 719.188 1521.76 644.009 1586.65 618.443C1647.13 594.613 1692.36 638.041 1753.1 614.88C1856.6 575.416 1814.61 432.125 1912.45 380.201C1981.49 343.565 2039.62 383.295 2110.29 349.94C2187.4 313.55 2191.83 163.505 2268.97 199.947Z" fill="#AEF8FF"/>
<path d="M2392.59 559.86C2432.65 594.136 2439.16 639.638 2426 690.695C2404.95 772.377 2314.57 775.209 2230.58 782.411C2146.94 789.583 2106.06 712.695 2023.16 725.877C1923.66 741.697 1920.55 868.237 1821.55 886.865C1752.57 899.843 1713.82 856.724 1643.74 860.597C1576.09 864.336 1543.4 903.287 1475.65 903.524C1437.48 903.657 1415.05 878.528 1378.79 890.428C1360.91 896.297 1355.01 908.556 1337.31 914.959C1312.17 924.054 1294.7 912.827 1269.08 920.438C1244.57 927.716 1236.22 945.606 1211.26 951.13C1192.36 955.313 1180.57 947.511 1161.7 951.84C1140.69 956.661 1132.42 968.752 1112.27 976.409C1089.05 985.234 1050.64 992.149 1050.64 992.149L1048.73 984.673C1048.73 984.673 1084.74 976.57 1105.67 966.149C1128.08 954.997 1133.7 935.506 1157.84 928.934C1175.81 924.043 1187.41 932.982 1205.53 928.702C1231.71 922.518 1237.94 899.406 1263.78 891.925C1283.64 886.177 1297.02 895.032 1316.6 888.393C1340.56 880.265 1344.31 857.371 1368.29 849.309C1405.32 836.863 1427.56 870.036 1466.58 868.011C1536.23 864.397 1554.84 791.546 1624.17 783.965C1688.79 776.9 1720.99 830.701 1785.69 824.348C1895.92 813.523 1893.14 664.234 2001.2 639.9C2077.44 622.73 2123.06 676.362 2200.03 662.791C2284 647.984 2327.77 504.399 2392.59 559.86Z" fill="#AEF8FF"/>
<path d="M2459.09 930.309C2488.46 974.091 2482.5 1019.67 2456.11 1065.31C2413.88 1138.33 2326.06 1116.77 2243.22 1101.13C2160.73 1085.56 2142.02 1000.51 2058.63 990.929C1958.54 979.427 1921.54 1100.47 1821.17 1091.81C1751.24 1085.77 1725.5 1033.82 1656.96 1018.72C1590.8 1004.14 1548.84 1032.87 1483.52 1014.89C1446.72 1004.76 1431.87 974.529 1393.75 976.246C1374.95 977.093 1365.96 987.314 1347.2 988.725C1320.54 990.73 1306.73 975.22 1280 975.664C1254.44 976.088 1241.59 991.075 1216.06 989.688C1196.74 988.638 1187.47 977.953 1168.14 977.053C1146.61 976.05 1135.39 985.473 1113.92 987.433C1089.18 989.691 1050.33 986.028 1050.33 986.028L1050.5 978.314C1050.5 978.314 1087.36 980.187 1110.32 975.776C1134.9 971.056 1145.55 953.793 1170.58 953.952C1189.2 954.071 1197.97 965.797 1216.57 966.545C1243.45 967.625 1255.67 947.038 1282.57 946.778C1303.24 946.578 1313.75 958.704 1334.39 957.57C1359.66 956.182 1369.41 935.136 1394.68 933.817C1433.7 931.782 1446.2 969.711 1484.33 978.247C1552.39 993.486 1589.89 928.316 1658.71 939.648C1722.85 950.21 1739.41 1010.69 1803.43 1021.95C1912.52 1041.15 1949.96 896.611 2060.59 902.214C2138.64 906.167 2168.16 970.086 2245.95 977.7C2330.81 986.006 2411.56 859.468 2459.09 930.309Z" fill="#AEF8FF"/>
<path d="M2463.13 1220.2C2486.03 1267.69 2473.71 1311.97 2441.14 1353.44C2389.04 1419.77 2305.14 1386.04 2225.33 1358.87C2145.86 1331.83 2139.33 1244.99 2058.12 1223.74C1960.66 1198.24 1906.95 1312.86 1808.81 1290.13C1740.44 1274.29 1722.28 1219.23 1656.55 1194.61C1593.11 1170.85 1547.52 1193.38 1485.38 1166.36C1450.38 1151.15 1439.94 1119.12 1401.96 1115.45C1383.23 1113.63 1372.89 1122.48 1354.11 1121.23C1327.44 1119.46 1315.96 1102.16 1289.43 1098.83C1264.07 1095.64 1249.23 1108.67 1224.15 1103.7C1205.17 1099.93 1197.5 1088.05 1178.49 1084.43C1157.31 1080.4 1144.88 1088.15 1123.35 1087.06C1098.54 1085.81 1060.59 1076.7 1060.59 1076.7L1061.85 1069.09C1061.85 1069.09 1098.08 1076.14 1121.43 1075.01C1146.43 1073.8 1159.41 1058.22 1184.16 1061.9C1202.58 1064.65 1209.61 1077.49 1227.92 1080.86C1254.38 1085.72 1269.38 1067.06 1296.05 1070.59C1316.54 1073.31 1325.23 1086.8 1345.83 1088.58C1371.04 1090.77 1383.67 1071.31 1408.87 1073.57C1447.78 1077.06 1454.81 1116.37 1491.35 1130.2C1556.58 1154.88 1602.9 1095.65 1669.43 1116.58C1731.45 1136.08 1739.31 1198.29 1801.1 1218.47C1906.39 1252.86 1963.85 1115.05 2072.57 1136.19C2149.29 1151.11 2169.51 1218.56 2245.44 1237.06C2328.28 1257.25 2426.07 1143.37 2463.13 1220.2Z" fill="#AEF8FF"/>
<path d="M2396.37 1514.28C2411.76 1564.71 2392.83 1606.59 2354.31 1642.6C2292.7 1700.21 2214.93 1654.07 2140.2 1615.05C2065.79 1576.19 2072.58 1489.37 1995.57 1455.98C1903.14 1415.91 1832.57 1520.99 1739.05 1483.55C1673.89 1457.47 1664.35 1400.28 1603.15 1365.93C1544.07 1332.76 1495.57 1348.07 1438.29 1311.89C1406.02 1291.51 1400.59 1258.27 1363.61 1248.84C1345.37 1244.19 1333.81 1251.36 1315.44 1247.26C1289.35 1241.44 1280.64 1222.59 1254.94 1215.25C1230.36 1208.23 1213.7 1218.84 1189.68 1210.1C1171.49 1203.48 1165.73 1190.57 1147.49 1184.09C1127.18 1176.88 1113.71 1182.63 1092.6 1178.28C1068.27 1173.25 1032.15 1158.46 1032.15 1158.46L1034.55 1151.13C1034.55 1151.13 1069.28 1163.63 1092.54 1166.08C1117.43 1168.7 1132.64 1155.27 1156.54 1162.69C1174.32 1168.21 1179.3 1181.98 1196.89 1188.1C1222.3 1196.94 1239.97 1180.79 1265.78 1188.35C1285.62 1194.16 1292.15 1208.82 1312.23 1213.73C1336.82 1219.74 1352.27 1202.43 1376.83 1208.51C1414.75 1217.89 1415.7 1257.82 1449.7 1277.06C1510.41 1311.41 1565.22 1259.94 1627.78 1290.77C1686.09 1319.5 1684.37 1382.18 1742.36 1411.56C1841.17 1461.61 1918.98 1334.17 2023.21 1371.66C2096.75 1398.11 2106.44 1467.85 2178.66 1497.73C2257.45 1530.32 2371.47 1432.69 2396.37 1514.28Z" fill="#AEF8FF"/>
<path d="M2161.65 1761.42C2166.33 1813.93 2139.17 1851.01 2094.06 1878.32C2021.9 1922 1955.31 1860.83 1890.22 1807.25C1825.41 1753.9 1849.94 1670.35 1781.46 1621.81C1699.26 1563.55 1608.56 1651.84 1524.76 1595.94C1466.37 1556.99 1468.81 1499.07 1416 1452.84C1365.02 1408.21 1314.42 1413.2 1265.81 1366C1238.43 1339.41 1239.97 1305.76 1205.73 1288.92C1188.84 1280.61 1176.05 1285.25 1158.92 1277.45C1134.59 1266.38 1129.95 1246.13 1106.3 1233.66C1083.7 1221.73 1065.21 1228.68 1043.51 1215.18C1027.07 1204.95 1024.1 1191.13 1007.58 1181.03C989.19 1169.79 974.824 1172.65 955.063 1164.04C932.29 1154.11 899.993 1132.2 899.993 1132.2L903.856 1125.52C903.856 1125.52 935.265 1144.9 957.519 1152.09C981.333 1159.78 998.981 1149.78 1020.84 1161.96C1037.1 1171.03 1039.14 1185.52 1055.1 1195.14C1078.14 1209.02 1098.75 1196.85 1122.46 1209.57C1140.67 1219.35 1144.05 1235.03 1162.68 1243.98C1185.5 1254.92 1204.18 1241.17 1226.97 1252.18C1262.15 1269.17 1254.85 1308.44 1284.16 1334.27C1336.48 1380.39 1400.72 1341.31 1455.59 1384.37C1506.73 1424.5 1492.13 1485.48 1542.83 1526.17C1629.21 1595.51 1731.6 1486.83 1825.87 1544.99C1892.39 1586.02 1887.5 1656.26 1952.02 1700.37C2022.4 1748.5 2154.09 1676.45 2161.65 1761.42Z" fill="#AEF8FF"/>
<path d="M1602.7 2064.98C1580.22 2112.66 1538.05 2130.95 1485.33 2131.73C1400.99 2132.99 1374.4 2046.56 1345.28 1967.45C1316.29 1888.67 1379.66 1828.94 1345.07 1752.46C1303.55 1660.67 1180.67 1691.07 1136.57 1600.49C1105.85 1537.39 1137.21 1488.63 1114.98 1422.06C1093.52 1357.79 1047.32 1336.54 1029.21 1271.25C1019.01 1234.48 1037.33 1206.21 1016.28 1174.38C1005.9 1158.68 992.516 1156.22 981.669 1140.84C966.262 1118.99 972.48 1099.18 958.375 1076.47C944.888 1054.76 925.427 1051.42 913.511 1028.81C904.489 1011.68 908.901 998.247 899.747 981.195C889.551 962.201 875.707 957.415 863.002 940C848.361 919.93 831.553 884.705 831.553 884.705L838.26 880.89C838.26 880.89 855.58 913.484 871.157 930.927C887.826 949.592 908.11 949.871 920.822 971.426C930.282 987.467 924.72 1001.01 933.633 1017.36C946.507 1040.98 970.444 1040.89 984.48 1063.84C995.265 1081.48 990.256 1096.72 1001.83 1113.85C1015.99 1134.82 1039.06 1132.39 1053.17 1153.4C1074.95 1185.83 1048.82 1216.03 1061.07 1253.13C1082.94 1319.36 1158.12 1318.08 1183.73 1382.95C1207.6 1443.42 1164.21 1488.68 1187.41 1549.4C1226.95 1652.87 1370.21 1610.79 1422.2 1708.59C1458.88 1777.6 1419.19 1835.75 1452.6 1906.41C1489.04 1983.49 1639.09 1987.82 1602.7 2064.98Z" fill="#AEF8FF"/>
</g>
<defs>
<clipPath id="clip0_167_13440">
<rect width="1920" height="1320" fill="white"/>
</clipPath>
</defs>
</svg>
