<?xml version="1.0" encoding="utf-8"?>
<!-- Generator: Adobe Illustrator 28.0.0, SVG Export Plug-In . SVG Version: 6.00 Build 0)  -->
<svg version="1.1" id="Layer_1" xmlns="http://www.w3.org/2000/svg" xmlns:xlink="http://www.w3.org/1999/xlink" x="0px" y="0px"
	 viewBox="0 0 270.7 289.5" style="enable-background:new 0 0 270.7 289.5;" xml:space="preserve">
<style type="text/css">
	.st0{fill:#00EB55;stroke:#000000;stroke-width:3.1062;}
	.st1{fill:#FC69EB;stroke:#000000;stroke-width:3.1062;}
	.st2{fill:#FFE400;stroke:#000000;stroke-width:2.3296;}
	.st3{fill:#7FFF7A;stroke:#000000;stroke-width:2.3296;}
	.st4{fill:#31BCFF;stroke:#000000;stroke-width:2.3296;}
	.st5{clip-path:url(#SVGID_00000031927213580018771600000005142993789092168346_);}
</style>
<circle class="st0" cx="135.7" cy="136.2" r="121.2"/>
<circle class="st1" cx="135.7" cy="136.2" r="112.7"/>
<circle class="st2" cx="135.5" cy="136" r="65.3"/>
<circle class="st3" cx="135.5" cy="137.3" r="47.2"/>
<circle class="st4" cx="129.4" cy="141.2" r="31.4"/>
<g>
	<defs>
		
			<rect id="SVGID_1_" x="30.6" y="34.3" transform="matrix(0.1546 -0.988 0.988 0.1546 -20.0892 249.993)" width="210.9" height="204.8"/>
	</defs>
	<clipPath id="SVGID_00000005944813823205803520000018392078794098020997_">
		<use xlink:href="#SVGID_1_"  style="overflow:visible;"/>
	</clipPath>
	<g style="clip-path:url(#SVGID_00000005944813823205803520000018392078794098020997_);">
		<path d="M86.2,79c-1.3,1.1-2.4,1.9-3.4,2.5c-0.2,0.1-0.5,0.1-0.6-0.1L76.8,75l-8.6-10.3c-0.2-0.2-0.2-0.5,0-0.6
			c0.6-0.6,1.3-1.3,2.3-2.1c4.1-3.3,7.1-3.7,9.3-1.1c0.1,0.1,0.2,0.2,0.3,0.4s0.2,0.2,0.2,0.2c0.4,0.5,0.7,1,1,1.4
			c0.3,0.5,0.4,0.9,0.5,1.3c0.1,0.4,0.1,0.7,0.2,0.9c0,0.2,0,0.5,0,0.8c0,0,0,0.1,0,0.1c0,0.2,0.2,0.4,0.4,0.3
			c0.3-0.1,0.5-0.2,0.6-0.2c0.1,0,0.4-0.1,0.8-0.1c0.4,0,0.7-0.1,0.9,0c0.3,0,0.6,0.1,1,0.2c0.4,0.1,0.8,0.2,1.1,0.4
			c0.3,0.2,0.7,0.5,1.1,0.8c0.4,0.3,0.8,0.8,1.2,1.2c0.3,0.4,0.6,0.9,0.9,1.3c0.2,0.5,0.4,1,0.5,1.7c0.1,0.7,0,1.4-0.2,2.1
			c-0.2,0.7-0.6,1.5-1.3,2.5C88.2,77.2,87.3,78.1,86.2,79L86.2,79z M76.4,67.9C76.4,67.9,76.4,67.9,76.4,67.9c0.6-0.6,0.9-1.2,1-1.7
			c0-0.6-0.1-1-0.4-1.4c-0.3-0.4-0.7-0.5-1.3-0.6c-0.4,0-0.9,0.1-1.3,0.4c-0.2,0.2-0.2,0.5-0.1,0.7L76.4,67.9
			C76.4,67.9,76.4,67.9,76.4,67.9z M83.1,74.9C83.1,74.9,83.1,74.9,83.1,74.9c0.2-0.1,0.4-0.2,0.6-0.4c1.1-0.9,1.4-1.6,0.9-2.2
			c-0.2-0.3-0.7-0.4-1.3-0.3c-0.6,0.1-1.2,0.4-1.8,0.9c0,0,0,0.1,0,0.1L83.1,74.9z"/>
		<path d="M100.6,69.3C100.6,69.3,100.6,69.3,100.6,69.3c-1.2,0.6-2.3,1-3.3,1.2c-1,0.1-1.8,0.1-2.5-0.1c-0.7-0.2-1.4-0.7-2.1-1.3
			c-0.7-0.7-1.2-1.4-1.7-2c-0.4-0.7-0.9-1.6-1.5-2.7c-0.2-0.3-0.5-1-1-1.9c-0.5-1-0.9-1.7-1.2-2.2l-2-3.7c-0.8-1.6-1.4-2.7-1.8-3.4
			c-0.1-0.2,0-0.5,0.2-0.7c0.5-0.3,1.2-0.7,2.2-1.2c0.8-0.4,1.4-0.8,1.8-1c0.2-0.1,0.5-0.1,0.7,0.2c0.2,0.4,0.4,0.8,0.6,1.1
			c0.2,0.5,0.6,1.3,1.2,2.4c0.6,1.1,1.1,2.1,1.5,3c1.1,2.2,2.3,4,3.4,5.5c0.3,0.4,0.6,0.7,0.9,0.9c0.3,0.2,0.5,0.2,0.6,0.2
			c0.1,0,0.2-0.1,0.4-0.1c0.4-0.2,0.7-0.5,0.8-0.9c0.1-0.4,0.2-0.8,0.1-1.2c-0.1-0.5-0.2-0.9-0.3-1.2c-0.1-0.3-0.3-0.7-0.6-1.2
			c-2.7-5.5-4.4-8.8-5-10c-0.1-0.2,0-0.6,0.2-0.7l3.5-2c0.2-0.1,0.6,0,0.7,0.2c0.2,0.4,0.6,1.1,1.2,2.1c0.8,1.5,1.7,2.9,2.5,4.4
			c0.8,1.4,1.4,2.5,1.8,3.2c1.4,2.6,2.2,4.8,2.4,6.5C104.4,65.6,103.3,67.9,100.6,69.3C100.6,69.3,100.6,69.3,100.6,69.3z"/>
		<path d="M114.4,63.3C114.4,63.3,114.4,63.3,114.4,63.3c0,0-0.1-0.3-0.2-0.8c-0.1-0.5-0.3-1.1-0.5-2l-0.5-2.3l-0.6-2.2l-0.4-1.9
			l-0.2-0.6c0-0.1-0.1-0.1-0.1-0.2l-9-9.8c-0.3-0.3-0.1-0.7,0.3-0.8l6.4-1.5c0.2,0,0.4,0,0.5,0.2l4.6,5.1c0.3,0.3,0.9,0.1,1-0.3
			c0.1-0.7,0.2-1.6,0.4-2.8c0.2-1.9,0.4-3.1,0.5-3.7c0-0.2,0.2-0.4,0.4-0.5c1.1-0.2,2-0.4,2.9-0.6c0.9-0.2,1.6-0.3,1.9-0.4
			c0.3-0.1,0.7-0.1,0.9-0.2c0.1,0,0.1,0,0.2,0c0.3-0.1,0.6,0.2,0.6,0.6c-0.2,1-0.6,2.6-1.1,4.7l-2.7,10.1c0,0.1,0,0.2,0,0.2l0.3,1.2
			l1.5,6.1c0.1,0.3-0.1,0.5-0.3,0.6L114.4,63.3C114.4,63.3,114.4,63.3,114.4,63.3z"/>
		<path d="M137.9,60.2C137.9,60.2,137.9,60.2,137.9,60.2c-0.1,0-0.2,0-0.3-0.1c0,0,0,0,0,0c0,0-0.1-0.1-0.1-0.1c0-0.2,0-0.6,0.1-1
			c0-0.5,0-0.8,0.1-1.1l1.2-9.9c0.1-0.8,0.2-2,0.4-3.7c0.2-1.6,0.4-2.8,0.5-3.6c0.1-0.4,0.1-0.9,0.1-1.6c0-0.4,0.1-0.8,0.1-1.2
			c0-0.3,0.3-0.5,0.6-0.4l5.4,0.9c0.2,0,0.3,0.2,0.4,0.3l3.4,9.5c0.2,0.5,0.9,0.4,1-0.1l0.6-3.6l0.7-4c0-0.2,0.1-0.4,0.1-0.6
			c0-0.1,0-0.2,0.1-0.3c0-0.3,0.3-0.4,0.5-0.4l1.9,0.1l2.6,0.3c0.3,0,0.5,0.3,0.4,0.5l0,0.4c-0.2,1.5-0.4,2.9-0.7,4.4
			c-0.3,1.3-0.7,3.3-1.2,6c-0.5,2.7-0.9,4.6-1.2,6c-0.1,0.4-0.2,1.1-0.3,1.9l-0.3,2.4c0,0.3-0.3,0.5-0.6,0.4c-1-0.1-1.9-0.2-2.6-0.4
			c-0.8-0.1-1.4-0.2-1.7-0.3c-0.3-0.1-0.5-0.1-0.5-0.1c-0.2,0-0.3-0.1-0.3-0.3l-2.9-8.2c-0.2-0.5-0.9-0.4-1,0.1l-0.8,6l-0.2,1.4
			c0,0.1,0,0.2-0.1,0.4c0,0.3-0.3,0.4-0.5,0.4L137.9,60.2C137.9,60.2,137.9,60.2,137.9,60.2z"/>
		<path d="M160.3,65C160.3,65,160.3,65,160.3,65c-0.7-0.3-1.3-0.6-1.9-1c-0.6-0.4-1-0.8-1.3-1.3c-0.3-0.4-0.6-0.9-0.8-1.5
			c-0.2-0.5-0.3-1.1-0.4-1.6c-0.1-0.5-0.1-1,0-1.6c0-0.6,0.1-1.1,0.2-1.5c0.1-0.4,0.2-0.9,0.4-1.4c0.1-0.5,0.3-0.9,0.4-1.1
			c0.1-0.3,0.2-0.6,0.3-0.9c0.1-0.2,0.1-0.3,0.2-0.4c0,0,0-0.1,0-0.1c0.2-0.6,0.5-1.3,0.8-2.3c0.3-1,0.6-1.7,0.7-2
			c0.1-0.4,0.3-0.8,0.6-1.5c0.3-0.6,0.5-1.1,0.7-1.4c0.2-0.3,0.4-0.6,0.7-1c0.3-0.4,0.6-0.7,0.9-1c0.8-0.8,1.9-1.3,3.1-1.5
			c1.3-0.2,2.5-0.1,3.6,0.3c4.2,1.6,5.6,4.8,4.3,9.8c-0.1,0.4-0.6,1.7-1.5,4.1c-0.9,2.4-1.5,3.9-1.9,4.7c-1.1,2.2-2.3,3.6-3.7,4.3
			C164.4,65.9,162.6,65.8,160.3,65C160.3,65,160.3,65,160.3,65z M162.4,54.9C162.4,54.9,162.4,54.9,162.4,54.9
			c-0.1,0.2-0.1,0.4-0.2,0.6c-0.1,0.2-0.1,0.6-0.2,0.9c0,0.4,0,0.7,0.1,1c0.1,0.3,0.3,0.5,0.5,0.6c0,0,0,0,0.1,0c0,0,0,0,0.1,0
			c0.5,0.2,1,0,1.4-0.5c0.4-0.6,0.9-1.5,1.4-2.8l0.5-1.1c1.3-3.2,1.4-5.1,0.4-5.4c-0.2-0.1-0.4-0.1-0.6-0.1c-0.2,0-0.4,0.1-0.5,0.2
			c-0.1,0.1-0.3,0.2-0.4,0.4c-0.1,0.1-0.2,0.3-0.3,0.6c-0.1,0.2-0.2,0.4-0.3,0.6c-0.1,0.1-0.1,0.3-0.2,0.6c-0.1,0.3-0.1,0.4-0.2,0.5
			c-0.8,2.2-1.3,3.4-1.3,3.6C162.5,54.7,162.4,54.8,162.4,54.9C162.4,54.9,162.4,54.9,162.4,54.9z"/>
		<path d="M180.5,76.1C180.5,76.1,180.5,76.1,180.5,76.1c0.4-1.6,1.4-4.4,2.8-8.5c0.1-0.4-0.3-0.8-0.7-0.5c-0.9,0.6-1.8,1.2-2.6,1.8
			c-1.1,0.8-1.9,1.3-2.3,1.5c-0.4,0.3-0.7,0.5-1.1,0.7c-0.2,0.2-0.4,0.3-0.7,0.5c-0.2,0.1-0.4,0.2-0.6,0l-4.8-3.1
			c-0.2-0.2-0.3-0.5-0.1-0.7c3.3-4.8,5.9-8.5,7.6-11.1l5-7.4c0.2-0.2,0.5-0.3,0.7-0.1c1.3,0.9,2.3,1.5,2.9,2
			c0.2,0.2,0.3,0.5,0.1,0.7c-1.5,2.3-2.7,4.1-3.5,5.4c-0.3,0.5,0.3,1,0.7,0.8c0.4-0.2,0.8-0.5,1.2-0.8c1.6-1,2.9-1.9,3.8-2.5
			l1.2-0.9c0.2-0.1,0.4-0.1,0.6,0l2,1.3c0.2,0.1,0.3,0.4,0.2,0.6l-0.3,0.7c-1.1,2.4-2,4.6-2.7,6.5c-0.2,0.5,0.4,0.9,0.8,0.5
			c2.8-3.1,4.5-5,5.2-5.7c0.2-0.2,0.4-0.2,0.6-0.1l3.8,2.6c0.2,0.2,0.3,0.5,0.1,0.7c-0.4,0.5-1.2,1.4-2.3,2.7c-1.6,1.9-3,3.6-4,4.9
			c-0.6,0.7-1.5,1.8-2.6,3.4l-1.9,2.4c-1.5,1.9-2.8,3.5-3.8,4.7c-0.2,0.2-0.4,0.2-0.6,0.1l-2.8-1.7L180.5,76.1
			C180.5,76.1,180.5,76.1,180.5,76.1z"/>
		<path d="M203.7,102.7C203.7,102.7,203.7,102.7,203.7,102.7c-0.7-1.5-1.2-2.8-1.6-3.9c-0.1-0.2,0-0.5,0.3-0.6l7.4-3.6l12.1-5.9
			c0.2-0.1,0.5,0,0.6,0.2c0.5,0.7,1,1.6,1.5,2.8c2.3,4.7,1.9,7.8-1.2,9.3c-0.1,0.1-0.3,0.1-0.4,0.2c-0.1,0.1-0.2,0.1-0.3,0.1
			c-0.6,0.3-1.1,0.5-1.6,0.6c-0.5,0.1-1,0.2-1.4,0.2c-0.4,0-0.7,0-0.9-0.1c-0.2,0-0.5-0.1-0.8-0.2c0,0-0.1,0-0.1,0
			c-0.2-0.1-0.4,0.1-0.4,0.3c0,0.3,0,0.5,0,0.7c0,0.1,0,0.4-0.1,0.8c0,0.4-0.1,0.7-0.2,0.9c-0.1,0.3-0.2,0.6-0.4,0.9
			c-0.2,0.4-0.4,0.7-0.7,1c-0.3,0.3-0.6,0.6-1.1,0.9c-0.4,0.3-0.9,0.6-1.5,0.9c-0.5,0.2-1,0.4-1.5,0.5c-0.5,0.1-1.1,0.1-1.8,0
			c-0.7-0.1-1.4-0.3-2-0.7c-0.6-0.4-1.3-1-2.1-1.9C205,105.2,204.3,104.1,203.7,102.7C203.7,102.8,203.7,102.8,203.7,102.7z
			 M208.5,100.7C208.5,100.7,208.5,100.7,208.5,100.7c0.1,0.2,0.2,0.4,0.3,0.7c0.6,1.3,1.2,1.7,1.9,1.4c0.4-0.2,0.6-0.6,0.6-1.2
			c0.1-0.6-0.1-1.3-0.4-2c0,0-0.1,0-0.1,0L208.5,100.7C208.5,100.7,208.5,100.7,208.5,100.7z M216.9,95.9
			C216.9,95.9,216.9,95.9,216.9,95.9c0.4,0.7,0.9,1.2,1.4,1.3c0.5,0.1,1,0.1,1.4-0.1c0.4-0.2,0.7-0.6,0.8-1.1c0.1-0.5,0.1-1-0.2-1.5
			c-0.1-0.2-0.3-0.2-0.4-0.1L216.9,95.9C216.9,95.9,216.9,95.9,216.9,95.9z"/>
		<path d="M209.6,119C209.6,119,209.6,119,209.6,119c-0.3-1.3-0.4-2.5-0.3-3.5c0.1-1,0.4-1.8,0.7-2.5c0.4-0.6,1-1.2,1.8-1.7
			c0.8-0.5,1.6-0.9,2.4-1.1c0.8-0.3,1.8-0.5,3-0.8c0.3-0.1,1-0.3,2.1-0.5c1.1-0.2,1.9-0.5,2.5-0.6l4-1c1.7-0.4,3-0.7,3.8-0.9
			c0.3-0.1,0.5,0.1,0.6,0.4c0.1,0.5,0.4,1.4,0.7,2.5c0.2,0.9,0.4,1.6,0.5,2c0.1,0.3-0.1,0.5-0.3,0.6c-0.5,0.1-0.9,0.2-1.2,0.3
			c-0.5,0.1-1.4,0.3-2.6,0.6c-1.2,0.3-2.3,0.5-3.3,0.8c-2.4,0.6-4.4,1.2-6.1,2c-0.5,0.2-0.9,0.4-1.1,0.6c-0.2,0.2-0.4,0.4-0.4,0.5
			c0,0.1,0,0.2,0,0.4c0.1,0.4,0.3,0.8,0.6,1c0.3,0.2,0.7,0.3,1.2,0.4c0.5,0,0.9,0,1.3,0c0.4,0,0.8-0.1,1.3-0.3
			c6-1.3,9.6-2.1,10.9-2.5c0.3-0.1,0.6,0.1,0.6,0.4l1.1,3.9c0.1,0.3-0.1,0.6-0.4,0.6c-0.5,0.1-1.2,0.3-2.3,0.6
			c-1.6,0.5-3.3,0.9-4.9,1.3c-1.6,0.4-2.8,0.7-3.5,0.9c-2.9,0.7-5.2,1-6.9,0.7C212.3,123.7,210.4,122,209.6,119
			C209.7,119,209.7,119,209.6,119z"/>
		<path d="M212.1,133.9C212.1,133.9,212.1,133.9,212.1,133.9c0,0,0.3,0,0.8,0c0.5,0,1.2,0,2,0l2.3,0.1l2.3,0l1.9,0l0.7,0
			c0.1,0,0.2,0,0.2-0.1l11.7-6.3c0.3-0.2,0.7,0.1,0.7,0.4l-0.1,6.6c0,0.2-0.1,0.3-0.3,0.4l-6.1,3.2c-0.4,0.2-0.3,0.9,0.1,1
			c0.6,0.2,1.5,0.6,2.7,1c1.7,0.7,2.9,1.2,3.5,1.4c0.2,0.1,0.4,0.3,0.3,0.5c0,1.1-0.1,2.1-0.1,2.9c0,1-0.1,1.6-0.1,2
			c0,0.3,0,0.7,0,1c0,0.1,0,0.1,0,0.2c0,0.3-0.4,0.5-0.7,0.4c-0.9-0.4-2.4-1.2-4.3-2.2l-9.1-5.1c-0.1,0-0.2-0.1-0.2-0.1l-1.2,0
			l-6.3-0.1c-0.3,0-0.5-0.2-0.5-0.5L212.1,133.9C212.1,133.9,212.1,133.9,212.1,133.9z"/>
		<path d="M209.4,157.5C209.4,157.5,209.4,157.5,209.4,157.5c0.1-0.1,0.1-0.2,0.1-0.2c0,0,0.1-0.1,0.1,0c0.2,0.1,0.5,0.2,0.9,0.3
			c0.5,0.1,0.8,0.2,1,0.3l9.3,3.5c0.8,0.3,1.9,0.7,3.4,1.3s2.7,1,3.4,1.3c0.4,0.1,0.9,0.3,1.5,0.5c0.4,0.1,0.8,0.3,1.1,0.4
			c0.3,0.1,0.4,0.4,0.3,0.7l-2.2,5.1c-0.1,0.2-0.2,0.3-0.4,0.3l-10,1c-0.5,0.1-0.6,0.7-0.2,1l3.4,1.5l3.8,1.6
			c0.2,0.1,0.4,0.2,0.6,0.2c0.1,0,0.2,0.1,0.3,0.1c0.2,0.1,0.4,0.4,0.3,0.6l-0.6,1.8l-0.9,2.5c-0.1,0.3-0.4,0.4-0.6,0.3l-0.4-0.1
			c-1.4-0.5-2.7-1.1-4.1-1.8c-1.2-0.6-3.1-1.4-5.5-2.6c-2.4-1.2-4.3-2-5.5-2.6c-0.4-0.2-1-0.4-1.8-0.7l-2.2-0.9
			c-0.3-0.1-0.4-0.4-0.3-0.6c0.4-0.9,0.7-1.7,1-2.4c0.3-0.8,0.5-1.3,0.7-1.6c0.1-0.3,0.2-0.4,0.2-0.5c0.1-0.1,0.2-0.3,0.4-0.3
			l8.7-0.9c0.5-0.1,0.6-0.8,0.1-1l-5.6-2.3l-1.3-0.5c-0.1,0-0.2-0.1-0.3-0.1c-0.2-0.1-0.3-0.4-0.2-0.6L209.4,157.5
			C209.4,157.5,209.4,157.5,209.4,157.5z"/>
		<path d="M199.3,178.1C199.3,178.1,199.3,178.1,199.3,178.1c0.4-0.6,0.9-1.2,1.4-1.6c0.5-0.4,1-0.8,1.5-1c0.5-0.2,1-0.3,1.6-0.4
			c0.6,0,1.1,0,1.6,0c0.5,0.1,1,0.2,1.6,0.4c0.5,0.2,1,0.4,1.4,0.6c0.4,0.2,0.8,0.4,1.3,0.7c0.4,0.3,0.8,0.5,1,0.7
			c0.2,0.2,0.5,0.4,0.7,0.6c0.2,0.2,0.4,0.3,0.4,0.3c0.5,0.3,1.2,0.8,2.1,1.4s1.5,1,1.8,1.2c0.3,0.2,0.7,0.5,1.3,0.9
			c0.5,0.4,0.9,0.7,1.2,1c0.2,0.3,0.5,0.6,0.8,0.9c0.3,0.4,0.5,0.7,0.8,1.1c0.5,1,0.8,2.1,0.6,3.4c-0.1,1.3-0.5,2.4-1.2,3.4
			c-2.5,3.7-6.1,4.3-10.6,1.8c-0.3-0.2-1.5-1-3.6-2.4c-2.1-1.5-3.4-2.4-4.1-3c-1.9-1.6-2.9-3.1-3.2-4.6
			C197.4,181.9,197.9,180.2,199.3,178.1C199.3,178.1,199.3,178.1,199.3,178.1z M208.5,182.5C208.5,182.5,208.5,182.5,208.5,182.5
			c-0.2-0.1-0.4-0.2-0.6-0.3c-0.2-0.1-0.5-0.3-0.9-0.4c-0.3-0.1-0.7-0.2-1-0.2c-0.3,0-0.5,0.2-0.7,0.4l0,0.1c-0.3,0.5-0.3,1,0.2,1.6
			c0.4,0.5,1.2,1.2,2.4,2.1l1,0.7c2.8,2.1,4.6,2.6,5.2,1.7c0.1-0.2,0.2-0.4,0.3-0.6c0-0.2,0-0.4-0.1-0.6s-0.2-0.3-0.3-0.5
			c-0.1-0.1-0.2-0.3-0.5-0.5c-0.2-0.2-0.4-0.3-0.5-0.4c-0.1-0.1-0.3-0.2-0.5-0.4c-0.2-0.1-0.4-0.3-0.5-0.3c-2-1.3-3-2.1-3.2-2.2
			C208.8,182.7,208.6,182.6,208.5,182.5C208.5,182.5,208.5,182.5,208.5,182.5z"/>
		<path d="M183.6,195C183.6,195,183.6,195,183.6,195c1.5,0.8,4,2.4,7.5,4.8c0.4,0.2,0.8-0.1,0.7-0.5c-0.4-1.1-0.8-2-1.1-3
			c-0.5-1.3-0.8-2.1-0.9-2.6c-0.2-0.4-0.3-0.9-0.5-1.2c-0.1-0.3-0.2-0.5-0.3-0.8c-0.1-0.2-0.1-0.4,0.1-0.6l4.2-3.9
			c0.2-0.2,0.5-0.2,0.7,0c3.9,4.4,6.8,7.8,8.9,10.1l5.9,6.7c0.2,0.2,0.2,0.5,0,0.7c-1.2,1-2,1.8-2.6,2.4c-0.2,0.2-0.5,0.2-0.7,0
			c-1.9-2.1-3.4-3.7-4.4-4.7c-0.4-0.4-1.1,0-0.9,0.5c0.1,0.4,0.3,0.9,0.5,1.4c0.6,1.8,1.1,3.3,1.5,4.3l0.5,1.4
			c0.1,0.2,0,0.4-0.1,0.5l-1.7,1.6c-0.2,0.2-0.5,0.2-0.6,0l-0.6-0.5c-2.1-1.6-4-3-5.6-4.2c-0.4-0.3-1,0.2-0.7,0.7
			c2.3,3.5,3.7,5.6,4.3,6.4c0.1,0.2,0.1,0.5-0.1,0.6l-3.5,3c-0.2,0.2-0.6,0.2-0.7-0.1c-0.4-0.5-1.1-1.5-2.1-2.9
			c-1.5-2-2.7-3.7-3.8-5.1c-0.5-0.7-1.4-1.9-2.6-3.4l-1.9-2.4c-1.5-2-2.7-3.6-3.6-4.8c-0.1-0.2-0.1-0.5,0.1-0.7l2.4-2.3L183.6,195
			C183.6,195,183.6,195,183.6,195z"/>
		<path d="M145,212.3C145,212.3,145,212.3,145,212.3c1.7-0.2,3.1-0.2,4.2-0.2c0.2,0,0.4,0.2,0.4,0.4l0.9,8.2l1.5,13.4
			c0,0.2-0.1,0.5-0.4,0.5c-0.8,0.2-1.8,0.4-3.1,0.5c-5.2,0.5-8-0.9-8.3-4.2c0-0.1,0-0.3,0-0.4c0-0.2,0-0.3,0-0.3
			c-0.1-0.6-0.1-1.2,0-1.7c0-0.5,0.1-1,0.3-1.3c0.2-0.4,0.3-0.7,0.4-0.9c0.1-0.2,0.3-0.4,0.5-0.7c0,0,0-0.1,0.1-0.1
			c0.2-0.2,0.1-0.4-0.1-0.5c-0.3-0.1-0.5-0.1-0.6-0.2c-0.1-0.1-0.4-0.2-0.7-0.3c-0.3-0.2-0.6-0.3-0.8-0.5c-0.2-0.2-0.5-0.4-0.7-0.7
			c-0.3-0.3-0.5-0.6-0.7-1c-0.2-0.4-0.3-0.8-0.5-1.3c-0.1-0.5-0.3-1.1-0.3-1.7c-0.1-0.5-0.1-1.1,0-1.6c0.1-0.5,0.3-1.1,0.6-1.7
			c0.3-0.6,0.8-1.2,1.3-1.7c0.6-0.5,1.4-0.9,2.4-1.3C142.3,212.8,143.5,212.5,145,212.3C145,212.3,145,212.3,145,212.3z
			 M145.3,217.9c0-0.3-0.2-0.5-0.5-0.4c-0.1,0-0.2,0-0.3,0c-1.4,0.1-2.1,0.6-2,1.3c0,0.4,0.3,0.7,0.9,1c0.5,0.3,1.2,0.4,2,0.3
			c0,0,0.1,0,0.1-0.1L145.3,217.9z M147,227.6c0-0.3-0.3-0.5-0.6-0.4c-0.6,0.2-1,0.4-1.2,0.8c-0.3,0.4-0.4,0.9-0.4,1.4
			c0,0.5,0.3,0.8,0.8,1.2c0.4,0.3,0.8,0.4,1.3,0.3c0.3,0,0.4-0.3,0.4-0.5L147,227.6z"/>
		<path d="M127.6,212.4C127.6,212.4,127.7,212.4,127.6,212.4c1.4,0.1,2.5,0.4,3.4,0.9c0.9,0.4,1.6,0.9,2.1,1.5
			c0.5,0.6,0.8,1.3,1,2.3c0.2,0.9,0.3,1.8,0.3,2.6c0,0.8-0.1,1.9-0.2,3.1c0,0.3-0.1,1.1-0.2,2.2c-0.1,1.1-0.2,1.9-0.2,2.5l-0.4,4.1
			c-0.2,1.8-0.3,3.1-0.4,3.9c0,0.3-0.3,0.5-0.5,0.4c-0.6,0-1.4-0.1-2.5-0.2c-0.9-0.1-1.6-0.1-2-0.2c-0.3,0-0.5-0.3-0.5-0.5
			c0-0.5,0.1-0.9,0.1-1.3c0.1-0.5,0.2-1.4,0.3-2.6c0.2-1.2,0.3-2.4,0.4-3.4c0.2-2.4,0.3-4.6,0.2-6.4c0-0.5-0.1-0.9-0.2-1.2
			c-0.1-0.3-0.3-0.5-0.4-0.5c-0.1,0-0.2-0.1-0.4-0.1c-0.5,0-0.8,0-1.2,0.3c-0.3,0.2-0.6,0.6-0.7,1c-0.2,0.4-0.3,0.8-0.4,1.2
			c-0.1,0.4-0.1,0.8-0.2,1.3c-0.8,6.1-1.2,9.8-1.4,11.1c0,0.3-0.3,0.5-0.6,0.5l-4-0.3c-0.3,0-0.5-0.3-0.5-0.6c0-0.5,0.1-1.3,0.2-2.4
			c0.1-1.7,0.2-3.4,0.4-5c0.1-1.7,0.2-2.9,0.3-3.6c0.3-3,0.8-5.2,1.6-6.8C122.4,213.4,124.6,212.1,127.6,212.4
			C127.6,212.4,127.6,212.4,127.6,212.4z"/>
		<path d="M112.8,209.7C112.8,209.7,112.8,209.7,112.8,209.7c0,0-0.1,0.3-0.3,0.7c-0.2,0.5-0.4,1.1-0.7,1.9l-0.8,2.2l-0.8,2.2
			l-0.7,1.8l-0.2,0.6c0,0.1,0,0.2,0,0.2l2.1,13.1c0.1,0.4-0.3,0.7-0.7,0.5l-6.1-2.3c-0.2-0.1-0.3-0.2-0.3-0.4l-1-6.8
			c-0.1-0.4-0.7-0.6-1-0.3c-0.4,0.5-1.1,1.3-1.9,2.2c-1.2,1.4-2.1,2.4-2.5,2.8c-0.1,0.2-0.4,0.2-0.6,0.2c-1-0.4-1.9-0.8-2.7-1.1
			c-0.9-0.3-1.5-0.6-1.8-0.7c-0.3-0.1-0.6-0.3-0.9-0.4c-0.1,0-0.1,0-0.2-0.1c-0.3-0.1-0.4-0.6-0.2-0.8c0.7-0.7,1.9-1.8,3.5-3.3
			l7.8-6.9c0.1-0.1,0.1-0.1,0.1-0.2l0.4-1.1l2.2-5.9c0.1-0.2,0.4-0.4,0.6-0.3L112.8,209.7C112.8,209.7,112.8,209.7,112.8,209.7z"/>
		<path d="M91.5,199.3C91.5,199.3,91.5,199.3,91.5,199.3c0.1,0.1,0.2,0.2,0.2,0.2c0,0,0,0.1,0,0.1c-0.2,0.2-0.4,0.4-0.6,0.8
			c-0.3,0.4-0.5,0.7-0.7,0.9l-6.4,7.6c-0.5,0.6-1.3,1.6-2.4,2.8c-1.1,1.2-1.9,2.2-2.4,2.8c-0.3,0.3-0.6,0.7-1,1.2
			c-0.3,0.3-0.5,0.7-0.7,0.9c-0.2,0.2-0.5,0.2-0.7,0l-4-3.7c-0.1-0.1-0.2-0.3-0.1-0.5l2.4-9.8c0.1-0.5-0.5-0.8-0.8-0.5l-2.5,2.7
			l-2.8,3c-0.1,0.2-0.3,0.3-0.4,0.5c-0.1,0.1-0.1,0.1-0.2,0.2c-0.2,0.2-0.5,0.2-0.7,0.1l-1.5-1.1l-2-1.7c-0.2-0.2-0.2-0.5-0.1-0.7
			l0.3-0.3c1-1.1,2-2.2,3.1-3.3c1-1,2.4-2.4,4.3-4.3c1.9-1.9,3.4-3.4,4.3-4.3c0.3-0.3,0.7-0.8,1.3-1.4l1.6-1.8
			c0.2-0.2,0.5-0.2,0.7,0c0.8,0.7,1.4,1.2,1.9,1.7c0.6,0.6,1.1,0.9,1.3,1.1c0.2,0.2,0.3,0.3,0.4,0.3c0.1,0.1,0.2,0.3,0.1,0.4
			l-2.1,8.5c-0.1,0.5,0.5,0.8,0.9,0.5l4-4.6l0.9-1.1c0.1-0.1,0.2-0.2,0.2-0.3c0.2-0.2,0.5-0.2,0.7,0L91.5,199.3
			C91.5,199.3,91.5,199.3,91.5,199.3z"/>
		<path d="M75.5,182.9C75.5,182.9,75.5,182.9,75.5,182.9c0.4,0.6,0.8,1.3,1,1.9c0.2,0.6,0.4,1.2,0.4,1.8c0,0.5,0,1.1-0.2,1.7
			c-0.2,0.6-0.3,1.1-0.6,1.5c-0.2,0.4-0.5,0.9-0.9,1.3c-0.3,0.5-0.7,0.8-1,1.2c-0.3,0.3-0.7,0.6-1.1,1c-0.4,0.3-0.7,0.6-1,0.7
			c-0.3,0.2-0.5,0.3-0.8,0.5c-0.2,0.1-0.3,0.2-0.3,0.2c0,0-0.1,0.1-0.1,0.1c-0.5,0.4-1.1,0.8-1.9,1.4c-0.8,0.6-1.4,1-1.7,1.3
			c-0.3,0.2-0.7,0.5-1.3,0.9c-0.6,0.4-1,0.6-1.3,0.8c-0.3,0.1-0.7,0.3-1.1,0.4c-0.4,0.2-0.9,0.3-1.3,0.4c-1.1,0.2-2.2,0-3.4-0.5
			s-2.1-1.3-2.8-2.3c-2.6-3.6-2-7.2,1.9-10.6c0.3-0.3,1.4-1.1,3.5-2.6c2.1-1.5,3.4-2.4,4.2-2.9c2.1-1.2,3.9-1.7,5.4-1.5
			C72.6,179.8,74.1,180.9,75.5,182.9C75.5,182.9,75.5,182.9,75.5,182.9z M68.3,190.1C68.2,190.1,68.2,190.1,68.3,190.1
			c0.2-0.1,0.3-0.3,0.5-0.4c0.2-0.2,0.4-0.4,0.6-0.7c0.2-0.3,0.4-0.6,0.5-0.9c0.1-0.3,0-0.6-0.1-0.8l0-0.1c-0.3-0.5-0.9-0.6-1.5-0.4
			c-0.7,0.2-1.6,0.7-2.7,1.5l-1,0.7c-2.9,2-4,3.4-3.3,4.3c0.1,0.2,0.3,0.3,0.5,0.5c0.2,0.1,0.4,0.1,0.5,0.1c0.2,0,0.4,0,0.5-0.1
			c0.2,0,0.4-0.1,0.6-0.3c0.2-0.1,0.4-0.3,0.5-0.3c0.1-0.1,0.3-0.2,0.5-0.4c0.2-0.2,0.4-0.3,0.4-0.3c1.9-1.4,3-2.2,3.1-2.2
			C68,190.3,68.1,190.2,68.3,190.1C68.3,190.1,68.3,190.1,68.3,190.1z"/>
		<path d="M64.9,162.4C64.9,162.4,64.9,162.4,64.9,162.4c-1.3,1.1-3.6,2.9-7,5.5c-0.4,0.3-0.2,0.8,0.3,0.8c1.1,0,2.2,0,3.2,0
			c1.4,0,2.3,0,2.8,0c0.5,0,0.9,0,1.3,0c0.3,0,0.5,0,0.8-0.1c0.2,0,0.4,0.1,0.5,0.3l2.3,5.3c0.1,0.3,0,0.6-0.3,0.7
			c-5.4,2.2-9.6,3.8-12.5,5l-8.2,3.4c-0.3,0.1-0.5,0-0.7-0.3c-0.6-1.4-1-2.5-1.3-3.3c-0.1-0.3,0-0.5,0.3-0.7
			c2.5-1.1,4.5-1.9,5.8-2.5c0.5-0.2,0.4-1-0.2-1c-0.4,0-0.9,0-1.4,0c-1.9,0-3.4-0.1-4.5,0l-1.5,0c-0.2,0-0.4-0.1-0.5-0.3l-0.9-2.2
			c-0.1-0.2,0-0.5,0.2-0.6l0.7-0.4c2.2-1.4,4.2-2.7,5.8-3.9c0.4-0.3,0.1-1-0.4-0.9c-4,1-6.5,1.7-7.5,1.9c-0.2,0.1-0.5-0.1-0.6-0.3
			l-1.7-4.3c-0.1-0.3,0-0.6,0.3-0.7c0.6-0.2,1.8-0.5,3.4-1c2.4-0.7,4.4-1.3,6-1.9c0.9-0.3,2.2-0.7,4-1.4l2.9-1
			c2.3-0.7,4.2-1.3,5.7-1.8c0.2-0.1,0.5,0,0.6,0.3l1.4,3L64.9,162.4z"/>
		<path d="M59.9,142C59.9,142,59.9,142,59.9,142c0.1,1.7,0.1,3.1-0.1,4.2c0,0.2-0.2,0.4-0.5,0.4l-8.3,0.5l-13.4,0.8
			c-0.2,0-0.5-0.1-0.5-0.4c-0.2-0.8-0.3-1.9-0.3-3.1c-0.3-5.2,1.3-7.9,4.7-8.1c0.1,0,0.3,0,0.4,0c0.2,0,0.3,0,0.3,0
			c0.6,0,1.2,0,1.7,0.1c0.5,0.1,1,0.2,1.3,0.4c0.4,0.2,0.7,0.3,0.8,0.4c0.2,0.1,0.4,0.3,0.6,0.5c0,0,0,0,0.1,0.1
			c0.1,0.1,0.4,0.1,0.5-0.1c0.1-0.3,0.2-0.5,0.2-0.6c0.1-0.1,0.2-0.4,0.4-0.7c0.2-0.3,0.4-0.6,0.6-0.8c0.2-0.2,0.4-0.4,0.8-0.7
			c0.3-0.3,0.7-0.5,1-0.6c0.4-0.2,0.8-0.3,1.3-0.4c0.5-0.1,1.1-0.2,1.7-0.2c0.5,0,1.1,0,1.6,0.1c0.5,0.1,1,0.3,1.7,0.7
			c0.6,0.4,1.1,0.8,1.6,1.4c0.5,0.6,0.8,1.4,1.2,2.5C59.6,139.3,59.8,140.6,59.9,142C59.9,142,59.9,142,59.9,142z M45.1,143.3
			C45.1,143.3,45.1,143.3,45.1,143.3c-0.1-0.8-0.4-1.4-0.8-1.8c-0.4-0.3-0.9-0.5-1.4-0.5c-0.5,0-0.9,0.3-1.2,0.7
			c-0.3,0.3-0.4,0.8-0.4,1.3c0,0.3,0.2,0.4,0.5,0.4L45.1,143.3C45.1,143.3,45.1,143.3,45.1,143.3z M54.7,142.1
			C54.7,142.1,54.7,142.1,54.7,142.1c0-0.2,0-0.4,0-0.7c-0.1-1.4-0.5-2.1-1.2-2c-0.4,0-0.7,0.3-1,0.8c-0.3,0.5-0.4,1.2-0.4,2
			c0,0,0,0,0,0c0,0,0,0.1,0,0.1L54.7,142.1C54.7,142.1,54.7,142.1,54.7,142.1z"/>
		<path d="M60.7,124.7C60.7,124.7,60.7,124.7,60.7,124.7c-0.2,1.3-0.6,2.5-1.1,3.3c-0.5,0.9-1,1.5-1.6,2c-0.6,0.4-1.4,0.7-2.3,0.9
			c-1,0.1-1.8,0.2-2.6,0.1c-0.8-0.1-1.8-0.2-3.1-0.4c-0.3-0.1-1.1-0.2-2.1-0.4c-1.1-0.2-1.9-0.3-2.5-0.4l-4.1-0.6
			c-1.8-0.3-3-0.5-3.8-0.6c-0.3,0-0.4-0.3-0.4-0.6c0.1-0.6,0.2-1.4,0.3-2.5c0.1-0.9,0.2-1.6,0.3-2c0-0.3,0.3-0.5,0.5-0.4
			c0.5,0.1,0.9,0.1,1.3,0.2c0.5,0.1,1.4,0.3,2.6,0.5c1.2,0.2,2.4,0.4,3.4,0.6c2.4,0.4,4.6,0.6,6.4,0.6c0.5,0,0.9,0,1.3-0.2
			c0.3-0.1,0.5-0.2,0.5-0.4s0.1-0.2,0.1-0.4c0.1-0.5,0-0.8-0.2-1.2c-0.2-0.3-0.5-0.6-1-0.8c-0.4-0.2-0.8-0.4-1.2-0.4
			c-0.4-0.1-0.8-0.2-1.3-0.3c-6-1.1-9.7-1.7-11-2c-0.3,0-0.5-0.3-0.4-0.6l0.5-4c0-0.3,0.3-0.5,0.6-0.4c0.5,0.1,1.3,0.2,2.4,0.3
			c1.7,0.2,3.4,0.4,5,0.6c1.6,0.2,2.8,0.4,3.6,0.5c2.9,0.5,5.2,1.1,6.7,2C60,119.4,61.2,121.7,60.7,124.7
			C60.7,124.7,60.7,124.7,60.7,124.7z"/>
		<path d="M64.1,110C64.1,110,64.1,110,64.1,110c-0.1,0-0.3-0.1-0.7-0.3c-0.4-0.2-1.1-0.4-1.9-0.8l-2.1-0.9l-2.1-0.9l-1.8-0.8
			l-0.6-0.2c-0.1,0-0.2,0-0.2,0l-13.2,1.4c-0.4,0-0.7-0.3-0.5-0.7l2.6-6c0.1-0.2,0.2-0.3,0.4-0.3l6.8-0.7c0.5,0,0.7-0.7,0.3-1
			c-0.5-0.5-1.2-1.1-2.1-2c-1.3-1.3-2.2-2.2-2.7-2.6c-0.2-0.2-0.2-0.4-0.1-0.6c0.5-1,0.9-1.9,1.2-2.7c0.4-0.9,0.7-1.5,0.8-1.8
			c0.2-0.3,0.3-0.6,0.4-0.9c0-0.1,0.1-0.1,0.1-0.2c0.1-0.3,0.6-0.4,0.8-0.1c0.7,0.8,1.7,2,3.1,3.6l6.5,8.2c0.1,0.1,0.1,0.1,0.2,0.2
			l1.1,0.5l5.8,2.5c0.2,0.1,0.4,0.4,0.3,0.6L64.1,110C64.1,110,64.1,110,64.1,110z"/>
	</g>
</g>
</svg>
