<?xml version="1.0" encoding="utf-8"?>
<!-- Generator: Adobe Illustrator 28.0.0, SVG Export Plug-In . SVG Version: 6.00 Build 0)  -->
<svg version="1.1" id="Layer_1" xmlns="http://www.w3.org/2000/svg" xmlns:xlink="http://www.w3.org/1999/xlink" x="0px" y="0px"
	 viewBox="0 0 126.2 134.9" style="enable-background:new 0 0 126.2 134.9;" xml:space="preserve">
<style type="text/css">
	.st0{fill:#BD39FF;stroke:#000000;stroke-width:3;}
	.st1{fill:#1BCAFF;stroke:#000000;stroke-width:2;}
	.st2{fill-rule:evenodd;clip-rule:evenodd;fill:#FFFFFF;}
</style>
<path class="st0" d="M68.6,8.9c32.3,3.4,55.7,32.1,52.3,64.2c-3.4,32.1-32.4,55.4-64.7,52C23.9,121.8,0.5,93,3.9,60.9
	C7.4,28.9,36.3,5.6,68.6,8.9z"/>
<path class="st1" d="M67.2,20.9c25.6,2.7,44.2,25.5,41.4,50.9C106,97.2,83,115.7,57.4,113S13.2,87.5,15.9,62.1
	C18.7,36.7,41.6,18.2,67.2,20.9z"/>
<path class="st2" d="M82.9,51.4c0.7-0.1,1.4-0.1,2,0.2c0.6,0.2,1.2,0.6,1.7,1.1c0.4,0.5,0.7,1.1,0.8,1.8c0.1,0.7,0,1.3-0.2,1.9
	l-13,31.9c-1.3,3.1-5.3,4.1-8,1.9c-2.3-1.9-5.6-4.7-8.5-7.6c-1.5-1.4-5.9-6-4.8-8.3c1-2,11.5-7.9,17.5-11.5c2.4-1.4,1.7-2.7-1-1.5
	c-6.7,2.9-17.4,7.3-20.8,8.4c-3.1,1-4.5,1-6.1,0.3c-3-1.2-5.7-2.5-7.8-4c-2.9-1.9-1.8-6,1.4-6.6L82.9,51.4z"/>
</svg>
