<svg width="120" height="122" viewBox="0 0 120 122" fill="none" xmlns="http://www.w3.org/2000/svg">
<path d="M60.0309 2.77636C92.1939 2.70122 118.25 28.7175 118.229 60.8858C118.207 93.0542 92.1159 119.192 59.9529 119.267C27.7899 119.343 1.73365 93.3263 1.75518 61.158C1.77672 28.9896 27.8679 2.8515 60.0309 2.77636Z" fill="white" stroke="black" stroke-width="3.4301"/>
<path d="M59.9044 16.7861C84.2794 16.729 104.026 36.4456 104.01 60.8246C103.994 85.2037 84.2206 105.013 59.8456 105.07C35.4706 105.127 15.7236 85.4103 15.7398 61.0312C15.7561 36.6522 35.5294 16.8431 59.9044 16.7861Z" fill="#1BCAFF" stroke="black" stroke-width="2.57257"/>
<path fill-rule="evenodd" clip-rule="evenodd" d="M77.0038 44.8258C77.6038 44.6536 78.2414 44.6401 78.8501 44.7868C79.4588 44.9335 80.0164 45.235 80.4649 45.66C80.9134 46.0849 81.2363 46.6178 81.4001 47.2031C81.5639 47.7884 81.5626 48.4047 81.3963 48.9879L72.7357 79.3142C71.8975 82.2392 68.3256 83.5868 65.6596 81.801C63.4295 80.3069 60.1248 78.0191 57.1825 75.6858C55.7115 74.5181 51.2207 70.8021 52.0655 68.5888C52.7905 66.6967 61.7286 60.2493 66.8546 56.396C68.8668 54.8819 68.1428 53.8075 65.8156 55.1494C60.0366 58.481 50.7944 63.4989 47.7706 64.8665C45.1033 66.0721 43.7693 66.1843 42.2349 65.7662C39.4354 65.0042 36.8703 64.0128 34.808 62.9183C32.0213 61.4398 32.5877 57.584 35.4821 56.7524L77.0038 44.8258Z" fill="white"/>
</svg>
