<?xml version="1.0" encoding="utf-8"?>
<!-- Generator: Adobe Illustrator 28.0.0, SVG Export Plug-In . SVG Version: 6.00 Build 0)  -->
<svg version="1.1" id="Layer_1" xmlns="http://www.w3.org/2000/svg" xmlns:xlink="http://www.w3.org/1999/xlink" x="0px" y="0px"
	 viewBox="0 0 974.2 369.5" style="enable-background:new 0 0 974.2 369.5;" xml:space="preserve">
<style type="text/css">
	.st0{fill:url(#SVGID_1_);}
	.st1{fill:url(#SVGID_00000083055833163818990040000001574654811878090657_);}
	.st2{fill:url(#SVGID_00000153700907754249036380000009321946150323337890_);}
	.st3{fill:url(#SVGID_00000159469687397777709020000006239814388933243282_);}
	.st4{fill:url(#SVGID_00000176766197484031619790000003115216773697694617_);}
	.st5{fill:url(#SVGID_00000109736436251127147790000013054931598672110226_);}
	.st6{fill:#FFFFFF;filter:url(#Adobe_OpacityMaskFilter);}
	.st7{fill:#FFFFFF;}
	
		.st8{mask:url(#path-2-inside-1_156_24_00000099651650871286617380000000083602549669138358_);fill:none;stroke:#130100;stroke-width:7.152;}
	.st9{fill:#FFFFFF;filter:url(#Adobe_OpacityMaskFilter_00000055704322733869752030000003602818724811505292_);}
	
		.st10{mask:url(#path-2-inside-1_156_24_00000065038346136386470680000012260767674395578806_);fill:none;stroke:#130100;stroke-width:7.152;}
	.st11{fill:#FFFFFF;filter:url(#Adobe_OpacityMaskFilter_00000009573695019885087640000003945637586097160623_);}
	
		.st12{mask:url(#path-2-inside-1_156_24_00000024712126337442814550000012442754946487054481_);fill:none;stroke:#130100;stroke-width:7.152;}
	.st13{fill:#FFFFFF;filter:url(#Adobe_OpacityMaskFilter_00000088829532701219130260000008217670636536375438_);}
	
		.st14{mask:url(#path-2-inside-1_156_24_00000060027376199267605390000016997619750069013937_);fill:none;stroke:#130100;stroke-width:7.152;}
	.st15{fill:#FFFFFF;filter:url(#Adobe_OpacityMaskFilter_00000173842390994075668610000012396242053571799992_);}
	
		.st16{mask:url(#path-2-inside-1_156_24_00000018929505231040862890000013801764238373664419_);fill:none;stroke:#130100;stroke-width:7.152;}
	.st17{fill:#FFFFFF;filter:url(#Adobe_OpacityMaskFilter_00000098941224091714640400000016789668053211493295_);}
	
		.st18{mask:url(#path-2-inside-1_156_24_00000116955247947916318140000007005500597532648582_);fill:none;stroke:#130100;stroke-width:7.152;}
</style>
<g>
	<path d="M83.7,344.7c-9.2,0.3-17.4-1.5-24.4-5.4c-7-3.9-12.7-9.1-17.1-15.6c-4.4-6.5-8.1-14.4-10.9-23.9
		c-2.9-9.5-4.9-19.2-6.2-29.3c-1.2-10.1,0.2-20.2,4.6-29.9c3.8-8.2,9-16.2,13-25.4c15.2-0.6,22.7-0.9,37.9-1.5
		c-0.2,0.9-0.3,1.4-0.5,2.2c-0.3,1.2-0.7,3.3-1.5,6c-0.7,2.7-1.5,5.4-2.2,8.2c-2.1,7.8-0.4,11.9,4.8,11.9H83
		c4.4,0.2,10-2.8,17.3-8.8c6.4-5.3,11.3-10.8,13.6-16.9c3.1-8.1,4.8-12.2,3.4-22.6c-2.5-14.5-12.6-28.1-21.3-41.3
		C77.2,125.6,54.4,98.3,71,68.3c-4,0.2-6,0.2-10.1,0.4c8.7-18.5,14.3-28,14.8-29.1c1.2-2.8,1.8-4.2,2.7-7c22.6-1.7,45-4.8,67.6-6.1
		c-2.5,13.9-6.9,21-13.8,33.8h-0.3c-4.6,0.5-6.9,0.7-11.5,1.2c-30.2,53.9,42.2,86,42.7,137.2c-4.2,20.2-18,39.5-22.6,58.1
		c-3.9,16.1-5.2,35.5-10.5,52.2c-4.6,14.5-17,34.1-42.9,35.6L83.7,344.7L83.7,344.7z"/>
	<path d="M235.1,348.8c-11.2-0.1-21.2-3.1-29.6-9.2c-8.4-6.2-14.9-13.6-19.3-22.3c-4.4-8.7-8-19.2-10.6-31.6
		c-2.7-12.3-4.9-23.4-3.5-31.4c1.3-8,5-15.4,9.3-23c1.8-3.2,3.7-6.6,5.4-10.1c1.2-2.3,1.8-3.4,2.9-5.8c2.7-6.9,6.6-15.7,1.2-30.2
		c-5.3-14.5-14.6-26.5-18.7-32.6c-12.5-18.4-30.6-39.1-28.6-59.4c1.1-11.4,9.4-21.9,19-32c10.2-10.7,23.6-21.3,37.5-30
		c12.7-8,23.2-12.4,34.5-12.4c22.7,0.1,37.6,10.8,42.4,24.9c3.2,9.6-1.4,19.9-2,29.4c-1.2,18.5,2.5,31.2,12,49.3
		c11.7,18.6,28.5,37.9,35.8,55.5c11.5,27.7-11.1,49.8-18.1,77.5c-5.7,22.7-5.5,49-19.8,71.4C276.1,340.2,257.1,348.9,235.1,348.8
		L235.1,348.8z M238.5,219.6c-1,2.2-2.1,4.6-3.4,7.2c-1.2,2.7-2.6,5.9-3.8,9.7c-1.2,3.8-1.4,7.1-0.7,9.6c0.8,2.6,2.6,3.9,5.3,3.9
		h0.6c5.6,0,10.5-4,16.1-11.1c5.7-7.2,15.3-16.8,18.8-34.3c1.2-6.1,1.7-9.3-0.4-16.8c-10.1-23.3-46.5-90-64-91.2
		c-10.7-0.7-0.2,30.7,5.7,40.5C230.5,163.2,253.9,190.5,238.5,219.6L238.5,219.6z"/>
	<path d="M312.8,51.6c0.7-1.3,2.5-4.2,4.8-8.8c2.3-4.6,3.7-8.3,4.6-11.1h42.2c3.1,0.2,4.7,0.3,7.9,0.4c1.4,0.2,2.1,0.3,3.6,0.4
		c-6.9,15-15.3,29.4-22.9,44.2c-6.4,15.4-2,27.6,4.9,42.6c1.7,3,2.6,4.5,4.6,7.6c16.9,24.9,42.4,52.1,37,80.4
		c-3.5,18.8-16.8,36.1-21.1,54.9c-0.4,26.6,0,53.1,0.1,79.7c-21,0.9-31.4,1.4-52.4,2.3h-4.3c0.2-24.6-1-49.5,0.6-74.1
		c1.4-21.8,15.7-38.5,21.5-59.4c7.5-26.9-13.1-50-28.7-74.1C294.7,105.1,294.6,83.7,312.8,51.6L312.8,51.6z"/>
	<path d="M411.1,343.8c-1.2,0-2.1-0.1-2.5-0.2c-0.4-0.1-0.7-0.2-0.9-0.2c0-3.3-0.2-8.3-0.5-14.9c-0.3-6.6-0.6-11.6-0.8-14.9
		c-0.1-21.6-3.8-44.9,3.6-66.1c7.2-20.8,18.1-36.3,18.1-58.1c-6.7-22.8-27.5-44.8-39.3-65.3c-10.3-18-14.9-33.9-5.4-53.4
		c2.3-4.8,5.8-11.1,9.9-19.1c4-7.9,7-14.8,8.7-20.7c19.5,0.8,38.9,1.7,58.4,2.5c0.6,23.7-9.7,45.9,2.2,69.1
		c17.1,33.5,57.1,60.6,76.3,94c-2.3-33.9-38.8-62.5-48-95.5c0.5-19.4,7.5-34.4,18.6-52.2c1.4-2.6,2.8-5.3,4.1-7.8
		c1.3-2.6,2.8-5.9,3.9-10.1c8.9-0.7,13.4-1,22.3-1.7c11.9-0.3,18.4-1.1,30.3-1.4c-1,4.8-2.3,7.6-4.2,12.2
		c-9.6,19.2-23.2,37.6-24.2,56.2c-1.6,33.4,52.7,69.2,47.2,103.2c-3.6,21.9-27.6,47.1-27.5,70.9c0,5.9-0.3,14.9-0.3,26.6v39.7
		c-11.5,0-21.2-0.1-29.1-0.2c-7.9-0.1-13.3-0.3-16-0.5c-2.8-0.1-4.4-0.2-4.8-0.2h-2.5c-14.9-42.9-24.7-80.4-26-124.2
		c-16.2,36.1-21.6,62.2-21.8,100.3v19.8c0,4.2-0.1,8-0.3,11.3C440.8,342.9,431,343.4,411.1,343.8L411.1,343.8z"/>
	<path d="M718.3,346c-12.6,0.1-23.6-2.4-32.5-7.2c-8.9-4.8-15.8-10.8-20.7-17.8c-4.8-7.1-8.6-16.9-11.2-29.5
		c-2.7-12.6-5.4-25.1-3.9-35.1c1.5-10,8-20.6,14.8-34.3c1.9-3.8,7.9-11.4,7.1-26.3c-0.8-14.7-10.9-29.3-20.4-42.7
		c-13.6-19.9-37.3-45.6-29.7-68.8c7-18.3,19.3-35.4,25.3-53.9c4.5,0,14-0.2,28.5-0.6c14.5-0.4,22.3-0.6,23.6-0.6
		c-1.9,8.5-5.7,15.6-9.4,21.8s-11.9,16.6-16.5,32.7c-5.4,19,7.4,37.3,18.6,54.1c21.6,32.5,39.5,58.3,23,93.7
		c-2.5,5.5-3.6,9.9-3.3,13c0.3,3.2,1,5,1.9,5.4c0.9,0.4,2.1,0.6,3.5,0.6c4.3,0,8.3-1.5,12.2-4.3c3.9-2.8,7.8-6.7,11.7-11.6
		c3.9-4.9,7.2-9.2,9.5-13.1c2.3-3.9,4.7-8.7,6.1-14.9c2.3-47-63.1-85.5-43.5-132.9c5.8-13.9,16.4-26.7,21.1-40.8
		c19.2-0.7,28.8-1,48-1.7c-0.8,2.8-8.6,14.5-19.1,35.1c-14.4,28.4,1.5,50.6,19.2,76.6c12.8,18.8,32,40.5,27.3,60.4
		c-6.2,26.6-24.8,53.5-32,82.2C772.2,306.8,759.6,345.8,718.3,346L718.3,346z"/>
	<path d="M848.1,344.2c-6.8,0-13.4-1.5-19.7-4.5c-6.4-3-11.3-6.1-14.8-9.2c-3.5-3.2-7.9-7.7-13.2-13.5c-5.4-5.9-8.9-9.7-10.8-11.5
		c8.6-19.9,6.1-48.2,24.7-65.3c6.4,6.8,22.3,14.7,29.7,14.7c7,0,15-2.9,25.2-8.2c10.2-5.3,17.7-11.5,21.9-19.2
		c0.6-1.2,1.2-2.4,1.7-3.8c0.5-1.4,0.8-3.4,0.7-5.9c-0.1-2.6-0.9-4.9-2.3-7.1c-1.4-2.2-4.1-4.3-8.2-6.4c-4.1-2.1-9.1-3.7-14.8-4.5
		c-12.8-1.8-21.6-7-32.1-18.3c-16.8-18.2-33.7-38.3-44.4-57.3c-19.1-33.8,2.5-61.1,44.7-85.3c13-7.3,24.6-12,36.7-13.4
		s22.5-0.9,31,1.7c8.4,2.6,16,6.3,22,10.9c-2.4,3.1-3.7,4.6-6.4,7.7c-16.4,17.9-42.7,42.6-42.2,64.7c-7.4-4.8-14.8-10.4-19.1-10.9
		c-2,0-4.5-1.4-6.9,1.3c-2.5,2.7-2.5,6.2-2.1,8c0.4,1.8,1.2,3.8,2.4,6c6.5,12.7,19.3,22.9,33.1,29.1c24.7,11,49.3,27,62.4,45.2
		c11.1,15.5,6.7,32.8-1.6,48c-8.2,15-11.4,31.3-16.3,47.2c-4.5,14.5-11.1,25.8-17.9,33.1c-6.8,7.4-14.8,13.2-24.1,17.6
		c-9.2,4.4-16.8,7-22.5,7.9C859.3,343.8,853.7,344.2,848.1,344.2L848.1,344.2z"/>
	
		<linearGradient id="SVGID_1_" gradientUnits="userSpaceOnUse" x1="-174.6585" y1="3607.0801" x2="-174.6585" y2="3277.041" gradientTransform="matrix(1 0 0 -1 256.5 3625.7979)">
		<stop  offset="0.1805" style="stop-color:#EA1115"/>
		<stop  offset="0.9209" style="stop-color:#FEDC00"/>
	</linearGradient>
	<path class="st0" d="M71.7,344.7c-9.2,0.3-17.4-1.5-24.4-5.4c-7-3.9-12.7-9.1-17.1-15.6c-4.4-6.5-8.1-14.4-10.9-23.9
		c-2.9-9.5-4.9-19.2-6.2-29.3c-1.2-10.1,0.2-20.2,4.6-29.9c3.8-8.2,9-16.2,13-25.4c15.2-0.6,22.7-0.9,37.9-1.5
		c-0.2,0.9-0.3,1.4-0.5,2.2c-0.3,1.2-0.7,3.3-1.5,6c-0.7,2.7-1.5,5.4-2.2,8.2C62.3,238,64,242,69.1,242H71c4.4,0.2,10-2.8,17.3-8.8
		c6.4-5.3,11.3-10.8,13.6-16.9c3.1-8.1,4.8-12.2,3.4-22.6c-2.5-14.5-12.6-28.1-21.3-41.3C65.2,125.6,42.4,98.3,59,68.3
		c-4,0.2-6,0.2-10.1,0.4c8.7-18.5,14.3-28,14.8-29.1c1.2-2.8,1.8-4.2,2.7-7c22.6-1.7,45.3-3.4,67.9-5.1c-2.5,13.9-7.3,20-14.2,32.8
		h-0.3c-4.6,0.5-6.9,0.7-11.5,1.2c-30.2,53.9,42.3,86,42.7,137.2c-4.2,20.2-18,39.5-22.6,58.1c-3.9,16.1-5.2,35.5-10.5,52.2
		c-4.6,14.5-17,34.1-42.9,35.6L71.7,344.7L71.7,344.7z"/>
	
		<linearGradient id="SVGID_00000146464360022326677540000007635696758979238829_" gradientUnits="userSpaceOnUse" x1="-33.9608" y1="3607.0801" x2="-33.9608" y2="3277.0413" gradientTransform="matrix(1 0 0 -1 256.5 3625.7979)">
		<stop  offset="0.1805" style="stop-color:#EA1115"/>
		<stop  offset="0.9209" style="stop-color:#FEDC00"/>
	</linearGradient>
	<path style="fill:url(#SVGID_00000146464360022326677540000007635696758979238829_);" d="M223,348.8c-11.2-0.1-21.2-3.1-29.6-9.2
		c-8.4-6.2-14.9-13.6-19.3-22.3c-4.4-8.7-8-19.2-10.6-31.6c-2.7-12.3-4.9-23.4-3.5-31.4c1.3-8,5-15.4,9.3-23
		c1.8-3.2,3.7-6.6,5.4-10.1c1.2-2.3,1.8-3.4,2.9-5.8c2.7-6.9,6.6-15.7,1.2-30.2c-5.3-14.5-14.6-26.5-18.7-32.6
		c-12.5-18.4-30.6-39.1-28.6-59.4c1.1-11.4,9.4-21.9,19-32c10.2-10.7,23.6-21.3,37.5-30c12.7-8,23.2-12.4,34.5-12.4
		c22.7,0.1,37.6,10.8,42.4,24.9c3.2,9.6-1.4,19.9-2,29.4c-1.2,18.5,2.5,31.2,12,49.3c11.7,18.6,28.5,37.9,35.8,55.5
		c11.5,27.7-11.1,49.8-18.1,77.5c-5.7,22.7-5.5,49-19.8,71.4C264.1,340.2,245.1,348.9,223,348.8L223,348.8z M226.5,219.6
		c-1,2.2-2.1,4.6-3.4,7.2c-1.2,2.7-2.6,5.9-3.8,9.7c-1.2,3.8-1.4,7.1-0.7,9.6c0.8,2.6,2.6,3.9,5.3,3.9h0.6c5.6,0,10.5-4,16.1-11.1
		c5.7-7.2,15.3-16.8,18.8-34.3c1.2-6.1,1.7-9.3-0.4-16.8c-10.1-23.3-46.5-90-64-91.2c-10.7-0.7-0.2,30.7,5.7,40.5
		C218.5,163.2,241.8,190.5,226.5,219.6L226.5,219.6z"/>
	
		<linearGradient id="SVGID_00000178200765667388508890000003094898828940794017_" gradientUnits="userSpaceOnUse" x1="81.2808" y1="3607.0801" x2="81.2808" y2="3277.041" gradientTransform="matrix(1 0 0 -1 256.5 3625.7979)">
		<stop  offset="0.1805" style="stop-color:#EA1115"/>
		<stop  offset="0.9209" style="stop-color:#FEDC00"/>
	</linearGradient>
	<path style="fill:url(#SVGID_00000178200765667388508890000003094898828940794017_);" d="M300.8,51.6c0.7-1.3,2.5-4.2,4.8-8.8
		c2.3-4.6,3.7-8.3,4.6-11.1h42.2c3.1,0.2,4.7,0.3,7.9,0.4c1.4,0.2,2.1,0.3,3.6,0.4c-6.9,15-15.3,29.4-22.9,44.2
		c-6.4,15.4-2,27.6,4.9,42.6c1.7,3,2.6,4.5,4.6,7.6c16.9,24.9,42.4,52.1,37,80.4c-3.5,18.8-16.8,36.1-21.1,54.9
		c-0.4,26.6,0,53.1,0.1,79.7c-21,0.9-31.4,1.4-52.4,2.3h-4.3c0.2-24.6-1-49.5,0.6-74.1c1.4-21.8,15.7-38.5,21.5-59.4
		c7.5-26.9-13.1-50-28.7-74.1C282.7,105.1,282.5,83.6,300.8,51.6L300.8,51.6z"/>
	
		<linearGradient id="SVGID_00000044167008529077353690000017067155998659289258_" gradientUnits="userSpaceOnUse" x1="215.2856" y1="3607.0801" x2="215.2856" y2="3277.041" gradientTransform="matrix(1 0 0 -1 256.5 3625.7979)">
		<stop  offset="0.1805" style="stop-color:#EA1115"/>
		<stop  offset="0.9209" style="stop-color:#FEDC00"/>
	</linearGradient>
	<path style="fill:url(#SVGID_00000044167008529077353690000017067155998659289258_);" d="M399.1,343.8c-1.2,0-2.1-0.1-2.5-0.2
		c-0.4-0.1-0.7-0.2-0.9-0.2c0-3.3-0.2-8.3-0.5-14.9c-0.3-6.6-0.6-11.6-0.8-14.9c-0.1-21.6-3.8-44.9,3.6-66.1
		c7.2-20.8,18.1-36.3,18.1-58.1c-6.7-22.8-27.5-44.8-39.3-65.3c-10.3-18-14.9-33.9-5.4-53.4c2.3-4.8,5.8-11.1,9.9-19.1
		c4-7.9,7-14.8,8.7-20.7c19.5,0.8,38.9,1.7,58.4,2.5c0.6,23.7-9.7,45.9,2.2,69.1c17.1,33.5,57.1,60.6,76.3,94
		c-2.3-33.9-38.8-62.5-48-95.5c0.5-19.4,7.5-34.4,18.6-52.2c1.4-2.6,2.8-5.3,4.1-7.8c1.3-2.6,2.8-5.9,3.9-10.1
		c8.9-0.7,13.4-1,22.3-1.7c11.9-0.3,17.9-0.5,29.8-0.9c-1,4.8-1.8,7.1-3.7,11.7c-9.6,19.2-23.2,37.6-24.2,56.2
		c-1.6,33.4,52.7,69.2,47.2,103.2c-3.6,21.9-27.6,47.1-27.5,70.9c0,5.9-0.3,14.9-0.3,26.6v39.7c-11.5,0-21.2-0.1-29.1-0.2
		c-7.9-0.1-13.3-0.3-16-0.5c-2.8-0.1-4.4-0.2-4.8-0.2h-2.5c-14.9-42.9-24.7-80.4-26-124.2c-16.2,36.1-21.6,62.2-21.8,100.3v19.8
		c0,4.2-0.1,8-0.3,11.3C428.9,343.3,419,343.4,399.1,343.8L399.1,343.8z"/>
	
		<linearGradient id="SVGID_00000129195724124950423370000002201589702939723695_" gradientUnits="userSpaceOnUse" x1="446.7169" y1="3607.0801" x2="446.7169" y2="3277.041" gradientTransform="matrix(1 0 0 -1 256.5 3625.7979)">
		<stop  offset="0.1805" style="stop-color:#EA1115"/>
		<stop  offset="0.9209" style="stop-color:#FEDC00"/>
	</linearGradient>
	<path style="fill:url(#SVGID_00000129195724124950423370000002201589702939723695_);" d="M706.3,346c-12.6,0.1-23.6-2.4-32.5-7.2
		c-8.9-4.8-15.8-10.8-20.7-17.8c-4.8-7.1-8.6-16.9-11.2-29.5c-2.7-12.6-5.4-25.1-3.9-35.1c1.5-10,8-20.6,14.8-34.3
		c1.9-3.8,7.9-11.4,7.1-26.3c-0.8-14.7-10.9-29.3-20.4-42.7c-13.6-19.9-37.3-45.6-29.7-68.8c7-18.3,19.3-35.4,25.3-53.9
		c4.5,0,14-0.2,28.5-0.6c14.5-0.4,22.3-0.6,23.6-0.6c-1.9,8.5-5.7,15.6-9.4,21.8c-3.7,6.2-11.9,16.6-16.5,32.7
		c-5.4,19,7.4,37.3,18.6,54.1c21.6,32.5,39.5,58.3,23,93.7c-2.5,5.5-3.6,9.9-3.3,13c0.3,3.2,1,5,1.9,5.4c0.9,0.4,2.1,0.6,3.5,0.6
		c4.3,0,8.3-1.5,12.2-4.3c3.9-2.8,7.8-6.7,11.7-11.6c3.9-4.9,7.2-9.2,9.5-13.1c2.3-3.9,4.7-8.7,6.1-14.9
		c2.3-47-63.1-85.5-43.5-132.9c5.8-13.9,16.4-26.7,21.1-40.8c19.2-0.7,28.8-1,48-1.7c-0.8,2.8-6.4,14.7-16.9,35.4
		c-14.4,28.4-0.7,50.4,17,76.3c12.8,18.8,32,40.5,27.3,60.4c-6.2,26.6-24.8,53.5-32,82.2C760.1,306.8,747.5,345.8,706.3,346
		L706.3,346z"/>
	
		<linearGradient id="SVGID_00000179622702006770597370000003641589564230000063_" gradientUnits="userSpaceOnUse" x1="600.859" y1="3607.0801" x2="600.859" y2="3277.041" gradientTransform="matrix(1 0 0 -1 256.5 3625.7979)">
		<stop  offset="0.1805" style="stop-color:#EA1115"/>
		<stop  offset="0.9209" style="stop-color:#FEDC00"/>
	</linearGradient>
	<path style="fill:url(#SVGID_00000179622702006770597370000003641589564230000063_);" d="M836,344.2c-6.8,0-13.4-1.5-19.7-4.5
		c-6.4-3-11.3-6.1-14.8-9.2c-3.5-3.2-7.9-7.7-13.2-13.5c-5.4-5.9-8.9-9.7-10.8-11.5c8.6-19.9,14.2-44.1,32.9-61.2
		c6.4,6.8,14.2,10.6,21.6,10.6c7,0,15-2.9,25.2-8.2c10.2-5.3,17.7-11.5,21.9-19.2c0.6-1.2,1.2-2.4,1.7-3.8c0.5-1.4,0.8-3.4,0.7-5.9
		c-0.1-2.6-0.9-4.9-2.3-7.1c-1.4-2.2-4.1-4.3-8.2-6.4c-4.1-2.1-9.1-3.7-14.8-4.5c-12.8-1.8-21.6-7-32.1-18.3
		c-16.8-18.2-33.7-38.3-44.4-57.3c-19.1-33.8,2.5-61.1,44.7-85.3c13-7.3,24.6-12,36.7-13.4s22.5-0.9,31,1.7c8.4,2.6,16,6.3,22,10.9
		c-2.4,3.1-3.7,4.6-6.4,7.7c-16.4,17.9-38.5,37.4-38,59.5c-7.4-4.8-12.4-7-16.6-7c-6,0-10.4,1.2-12.9,3.9c-2.5,2.7-3.3,5-2.9,6.8
		c0.4,1.8,1.2,3.8,2.4,6c6.5,12.7,19.3,22.9,33.1,29.1c24.7,11,49.3,27,62.4,45.2c11.1,15.5,6.7,32.8-1.6,48
		c-8.2,15-11.4,31.3-16.3,47.2c-4.5,14.5-11.1,25.8-17.9,33.1c-6.8,7.4-14.8,13.2-24.1,17.6c-9.2,4.4-16.8,7-22.5,7.9
		C847.3,343.8,841.6,344.2,836,344.2L836,344.2z"/>
	<defs>
		<filter id="Adobe_OpacityMaskFilter" filterUnits="userSpaceOnUse" x="9.1" y="23.6" width="145.5" height="324.7">
			<feColorMatrix  type="matrix" values="1 0 0 0 0  0 1 0 0 0  0 0 1 0 0  0 0 0 1 0"/>
		</filter>
	</defs>
	
		<mask maskUnits="userSpaceOnUse" x="9.1" y="23.6" width="145.5" height="324.7" id="path-2-inside-1_156_24_00000099651650871286617380000000083602549669138358_">
		<path class="st6" d="M71.7,344.7c-9.2,0.3-17.4-1.5-24.4-5.4c-7-3.9-12.7-9.1-17.1-15.6c-4.4-6.5-8.1-14.4-10.9-23.9
			c-2.9-9.5-4.9-19.2-6.2-29.3c-1.2-10.1,0.2-20.2,4.6-29.9c3.8-8.2,9-16.2,13-25.4c15.2-0.6,22.7-0.9,37.9-1.5
			c-0.2,0.9-0.3,1.4-0.5,2.2c-0.3,1.2-0.7,3.3-1.5,6c-0.7,2.7-1.5,5.4-2.2,8.2C62.3,238,64,242,69.1,242H71c4.4,0.2,10-2.8,17.3-8.8
			c6.4-5.3,11.3-10.8,13.6-16.9c3.1-8.1,4.8-12.2,3.4-22.6c-2.5-14.5-12.6-28.1-21.3-41.3C65.2,125.6,42.4,98.3,59,68.3
			c-4,0.2-6,0.2-10.1,0.4c8.7-18.5,14.3-28,14.8-29.1c1.2-2.8,1.8-4.2,2.7-7c22.6-1.7,45.3-3.4,67.9-5.1c-2.5,13.9-7.3,20-14.2,32.8
			h-0.3c-4.6,0.5-6.9,0.7-11.5,1.2c-30.2,53.9,42.3,86,42.7,137.2c-4.2,20.2-18,39.5-22.6,58.1c-3.9,16.1-5.2,35.5-10.5,52.2
			c-4.6,14.5-17,34.1-42.9,35.6L71.7,344.7L71.7,344.7z"/>
		<path class="st7" d="M223,348.8c-11.2-0.1-21.2-3.1-29.6-9.2c-8.4-6.2-14.9-13.6-19.3-22.3c-4.4-8.7-8-19.2-10.6-31.6
			c-2.7-12.3-4.9-23.4-3.5-31.4c1.3-8,5-15.4,9.3-23c1.8-3.2,3.7-6.6,5.4-10.1c1.2-2.3,1.8-3.4,2.9-5.8c2.7-6.9,6.6-15.7,1.2-30.2
			c-5.3-14.5-14.6-26.5-18.7-32.6c-12.5-18.4-30.6-39.1-28.6-59.4c1.1-11.4,9.4-21.9,19-32c10.2-10.7,23.6-21.3,37.5-30
			c12.7-8,23.2-12.4,34.5-12.4c22.7,0.1,37.6,10.8,42.4,24.9c3.2,9.6-1.4,19.9-2,29.4c-1.2,18.5,2.5,31.2,12,49.3
			c11.7,18.6,28.5,37.9,35.8,55.5c11.5,27.7-11.1,49.8-18.1,77.5c-5.7,22.7-5.5,49-19.8,71.4C264.1,340.2,245.1,348.9,223,348.8
			L223,348.8z M226.5,219.6c-1,2.2-2.1,4.6-3.4,7.2c-1.2,2.7-2.6,5.9-3.8,9.7c-1.2,3.8-1.4,7.1-0.7,9.6c0.8,2.6,2.6,3.9,5.3,3.9h0.6
			c5.6,0,10.5-4,16.1-11.1c5.7-7.2,15.3-16.8,18.8-34.3c1.2-6.1,1.7-9.3-0.4-16.8c-10.1-23.3-46.5-90-64-91.2
			c-10.7-0.7-0.2,30.7,5.7,40.5C218.5,163.2,241.8,190.5,226.5,219.6L226.5,219.6z"/>
		<path class="st7" d="M300.8,51.6c0.7-1.3,2.5-4.2,4.8-8.8c2.3-4.6,3.7-8.3,4.6-11.1h42.2c3.1,0.2,4.7,0.3,7.9,0.4
			c1.4,0.2,2.1,0.3,3.6,0.4c-6.9,15-15.3,29.4-22.9,44.2c-6.4,15.4-2,27.6,4.9,42.6c1.7,3,2.6,4.5,4.6,7.6
			c16.9,24.9,42.4,52.1,37,80.4c-3.5,18.8-16.8,36.1-21.1,54.9c-0.4,26.6,0,53.1,0.1,79.7c-21,0.9-31.4,1.4-52.4,2.3h-4.3
			c0.2-24.6-1-49.5,0.6-74.1c1.4-21.8,15.7-38.5,21.5-59.4c7.5-26.9-13.1-50-28.7-74.1C282.7,105.1,282.5,83.6,300.8,51.6
			L300.8,51.6z"/>
		<path class="st7" d="M399.1,343.8c-1.2,0-2.1-0.1-2.5-0.2c-0.4-0.1-0.7-0.2-0.9-0.2c0-3.3-0.2-8.3-0.5-14.9
			c-0.3-6.6-0.6-11.6-0.8-14.9c-0.1-21.6-3.8-44.9,3.6-66.1c7.2-20.8,18.1-36.3,18.1-58.1c-6.7-22.8-27.5-44.8-39.3-65.3
			c-10.3-18-14.9-33.9-5.4-53.4c2.3-4.8,5.8-11.1,9.9-19.1c4-7.9,7-14.8,8.7-20.7c19.5,0.8,38.9,1.7,58.4,2.5
			c0.6,23.7-9.7,45.9,2.2,69.1c17.1,33.5,57.1,60.6,76.3,94c-2.3-33.9-38.8-62.5-48-95.5c0.5-19.4,7.5-34.4,18.6-52.2
			c1.4-2.6,2.8-5.3,4.1-7.8c1.3-2.6,2.8-5.9,3.9-10.1c8.9-0.7,13.4-1,22.3-1.7c11.9-0.3,17.9-0.5,29.8-0.9c-1,4.8-1.8,7.1-3.7,11.7
			c-9.6,19.2-23.2,37.6-24.2,56.2c-1.6,33.4,52.7,69.2,47.2,103.2c-3.6,21.9-27.6,47.1-27.5,70.9c0,5.9-0.3,14.9-0.3,26.6v39.7
			c-11.5,0-21.2-0.1-29.1-0.2c-7.9-0.1-13.3-0.3-16-0.5c-2.8-0.1-4.4-0.2-4.8-0.2h-2.5c-14.9-42.9-24.7-80.4-26-124.2
			c-16.2,36.1-21.6,62.2-21.8,100.3v19.8c0,4.2-0.1,8-0.3,11.3C428.9,343.3,419,343.4,399.1,343.8L399.1,343.8z"/>
		<path class="st7" d="M706.3,346c-12.6,0.1-23.6-2.4-32.5-7.2c-8.9-4.8-15.8-10.8-20.7-17.8c-4.8-7.1-8.6-16.9-11.2-29.5
			c-2.7-12.6-5.4-25.1-3.9-35.1c1.5-10,8-20.6,14.8-34.3c1.9-3.8,7.9-11.4,7.1-26.3c-0.8-14.7-10.9-29.3-20.4-42.7
			c-13.6-19.9-37.3-45.6-29.7-68.8c7-18.3,19.3-35.4,25.3-53.9c4.5,0,14-0.2,28.5-0.6c14.5-0.4,22.3-0.6,23.6-0.6
			c-1.9,8.5-5.7,15.6-9.4,21.8c-3.7,6.2-11.9,16.6-16.5,32.7c-5.4,19,7.4,37.3,18.6,54.1c21.6,32.5,39.5,58.3,23,93.7
			c-2.5,5.5-3.6,9.9-3.3,13c0.3,3.2,1,5,1.9,5.4c0.9,0.4,2.1,0.6,3.5,0.6c4.3,0,8.3-1.5,12.2-4.3c3.9-2.8,7.8-6.7,11.7-11.6
			c3.9-4.9,7.2-9.2,9.5-13.1c2.3-3.9,4.7-8.7,6.1-14.9c2.3-47-63.1-85.5-43.5-132.9c5.8-13.9,16.4-26.7,21.1-40.8
			c19.2-0.7,28.8-1,48-1.7c-0.8,2.8-6.4,14.7-16.9,35.4c-14.4,28.4-0.7,50.4,17,76.3c12.8,18.8,32,40.5,27.3,60.4
			c-6.2,26.6-24.8,53.5-32,82.2C760.1,306.8,747.5,345.8,706.3,346L706.3,346z"/>
		<path class="st7" d="M836,344.2c-6.8,0-13.4-1.5-19.7-4.5c-6.4-3-11.3-6.1-14.8-9.2c-3.5-3.2-7.9-7.7-13.2-13.5
			c-5.4-5.9-8.9-9.7-10.8-11.5c8.6-19.9,14.2-44.1,32.9-61.2c6.4,6.8,14.2,10.6,21.6,10.6c7,0,15-2.9,25.2-8.2
			c10.2-5.3,17.7-11.5,21.9-19.2c0.6-1.2,1.2-2.4,1.7-3.8c0.5-1.4,0.8-3.4,0.7-5.9c-0.1-2.6-0.9-4.9-2.3-7.1
			c-1.4-2.2-4.1-4.3-8.2-6.4c-4.1-2.1-9.1-3.7-14.8-4.5c-12.8-1.8-21.6-7-32.1-18.3c-16.8-18.2-33.7-38.3-44.4-57.3
			c-19.1-33.8,2.5-61.1,44.7-85.3c13-7.3,24.6-12,36.7-13.4s22.5-0.9,31,1.7c8.4,2.6,16,6.3,22,10.9c-2.4,3.1-3.7,4.6-6.4,7.7
			c-16.4,17.9-38.5,37.4-38,59.5c-7.4-4.8-12.4-7-16.6-7c-6,0-10.4,1.2-12.9,3.9c-2.5,2.7-3.3,5-2.9,6.8c0.4,1.8,1.2,3.8,2.4,6
			c6.5,12.7,19.3,22.9,33.1,29.1c24.7,11,49.3,27,62.4,45.2c11.1,15.5,6.7,32.8-1.6,48c-8.2,15-11.4,31.3-16.3,47.2
			c-4.5,14.5-11.1,25.8-17.9,33.1c-6.8,7.4-14.8,13.2-24.1,17.6c-9.2,4.4-16.8,7-22.5,7.9C847.3,343.8,841.6,344.2,836,344.2
			L836,344.2z"/>
	</mask>
	<path class="st8" d="M71.7,344.7c-9.2,0.3-17.4-1.5-24.4-5.4c-7-3.9-12.7-9.1-17.1-15.6c-4.4-6.5-8.1-14.4-10.9-23.9
		c-2.9-9.5-4.9-19.2-6.2-29.3c-1.2-10.1,0.2-20.2,4.6-29.9c3.8-8.2,9-16.2,13-25.4c15.2-0.6,22.7-0.9,37.9-1.5
		c-0.2,0.9-0.3,1.4-0.5,2.2c-0.3,1.2-0.7,3.3-1.5,6c-0.7,2.7-1.5,5.4-2.2,8.2C62.3,238,64,242,69.1,242H71c4.4,0.2,10-2.8,17.3-8.8
		c6.4-5.3,11.3-10.8,13.6-16.9c3.1-8.1,4.8-12.2,3.4-22.6c-2.5-14.5-12.6-28.1-21.3-41.3C65.2,125.6,42.4,98.3,59,68.3
		c-4,0.2-6,0.2-10.1,0.4c8.7-18.5,14.3-28,14.8-29.1c1.2-2.8,1.8-4.2,2.7-7c22.6-1.7,45.3-3.4,67.9-5.1c-2.5,13.9-7.3,20-14.2,32.8
		h-0.3c-4.6,0.5-6.9,0.7-11.5,1.2c-30.2,53.9,42.3,86,42.7,137.2c-4.2,20.2-18,39.5-22.6,58.1c-3.9,16.1-5.2,35.5-10.5,52.2
		c-4.6,14.5-17,34.1-42.9,35.6L71.7,344.7L71.7,344.7z"/>
	<defs>
		
			<filter id="Adobe_OpacityMaskFilter_00000054232340204472601640000008929377693960974238_" filterUnits="userSpaceOnUse" x="127.8" y="15.1" width="189.6" height="337.2">
			<feColorMatrix  type="matrix" values="1 0 0 0 0  0 1 0 0 0  0 0 1 0 0  0 0 0 1 0"/>
		</filter>
	</defs>
	
		<mask maskUnits="userSpaceOnUse" x="127.8" y="15.1" width="189.6" height="337.2" id="path-2-inside-1_156_24_00000065038346136386470680000012260767674395578806_">
		<path style="fill:#FFFFFF;filter:url(#Adobe_OpacityMaskFilter_00000054232340204472601640000008929377693960974238_);" d="
			M71.7,344.7c-9.2,0.3-17.4-1.5-24.4-5.4c-7-3.9-12.7-9.1-17.1-15.6c-4.4-6.5-8.1-14.4-10.9-23.9c-2.9-9.5-4.9-19.2-6.2-29.3
			c-1.2-10.1,0.2-20.2,4.6-29.9c3.8-8.2,9-16.2,13-25.4c15.2-0.6,22.7-0.9,37.9-1.5c-0.2,0.9-0.3,1.4-0.5,2.2
			c-0.3,1.2-0.7,3.3-1.5,6c-0.7,2.7-1.5,5.4-2.2,8.2C62.3,238,64,242,69.1,242H71c4.4,0.2,10-2.8,17.3-8.8
			c6.4-5.3,11.3-10.8,13.6-16.9c3.1-8.1,4.8-12.2,3.4-22.6c-2.5-14.5-12.6-28.1-21.3-41.3C65.2,125.6,42.4,98.3,59,68.3
			c-4,0.2-6,0.2-10.1,0.4c8.7-18.5,14.3-28,14.8-29.1c1.2-2.8,1.8-4.2,2.7-7c22.6-1.7,45.3-3.4,67.9-5.1c-2.5,13.9-7.3,20-14.2,32.8
			h-0.3c-4.6,0.5-6.9,0.7-11.5,1.2c-30.2,53.9,42.3,86,42.7,137.2c-4.2,20.2-18,39.5-22.6,58.1c-3.9,16.1-5.2,35.5-10.5,52.2
			c-4.6,14.5-17,34.1-42.9,35.6L71.7,344.7L71.7,344.7z"/>
		<path class="st7" d="M223,348.8c-11.2-0.1-21.2-3.1-29.6-9.2c-8.4-6.2-14.9-13.6-19.3-22.3c-4.4-8.7-8-19.2-10.6-31.6
			c-2.7-12.3-4.9-23.4-3.5-31.4c1.3-8,5-15.4,9.3-23c1.8-3.2,3.7-6.6,5.4-10.1c1.2-2.3,1.8-3.4,2.9-5.8c2.7-6.9,6.6-15.7,1.2-30.2
			c-5.3-14.5-14.6-26.5-18.7-32.6c-12.5-18.4-30.6-39.1-28.6-59.4c1.1-11.4,9.4-21.9,19-32c10.2-10.7,23.6-21.3,37.5-30
			c12.7-8,23.2-12.4,34.5-12.4c22.7,0.1,37.6,10.8,42.4,24.9c3.2,9.6-1.4,19.9-2,29.4c-1.2,18.5,2.5,31.2,12,49.3
			c11.7,18.6,28.5,37.9,35.8,55.5c11.5,27.7-11.1,49.8-18.1,77.5c-5.7,22.7-5.5,49-19.8,71.4C264.1,340.2,245.1,348.9,223,348.8
			L223,348.8z M226.5,219.6c-1,2.2-2.1,4.6-3.4,7.2c-1.2,2.7-2.6,5.9-3.8,9.7c-1.2,3.8-1.4,7.1-0.7,9.6c0.8,2.6,2.6,3.9,5.3,3.9h0.6
			c5.6,0,10.5-4,16.1-11.1c5.7-7.2,15.3-16.8,18.8-34.3c1.2-6.1,1.7-9.3-0.4-16.8c-10.1-23.3-46.5-90-64-91.2
			c-10.7-0.7-0.2,30.7,5.7,40.5C218.5,163.2,241.8,190.5,226.5,219.6L226.5,219.6z"/>
		<path class="st7" d="M300.8,51.6c0.7-1.3,2.5-4.2,4.8-8.8c2.3-4.6,3.7-8.3,4.6-11.1h42.2c3.1,0.2,4.7,0.3,7.9,0.4
			c1.4,0.2,2.1,0.3,3.6,0.4c-6.9,15-15.3,29.4-22.9,44.2c-6.4,15.4-2,27.6,4.9,42.6c1.7,3,2.6,4.5,4.6,7.6
			c16.9,24.9,42.4,52.1,37,80.4c-3.5,18.8-16.8,36.1-21.1,54.9c-0.4,26.6,0,53.1,0.1,79.7c-21,0.9-31.4,1.4-52.4,2.3h-4.3
			c0.2-24.6-1-49.5,0.6-74.1c1.4-21.8,15.7-38.5,21.5-59.4c7.5-26.9-13.1-50-28.7-74.1C282.7,105.1,282.5,83.6,300.8,51.6
			L300.8,51.6z"/>
		<path class="st7" d="M399.1,343.8c-1.2,0-2.1-0.1-2.5-0.2c-0.4-0.1-0.7-0.2-0.9-0.2c0-3.3-0.2-8.3-0.5-14.9
			c-0.3-6.6-0.6-11.6-0.8-14.9c-0.1-21.6-3.8-44.9,3.6-66.1c7.2-20.8,18.1-36.3,18.1-58.1c-6.7-22.8-27.5-44.8-39.3-65.3
			c-10.3-18-14.9-33.9-5.4-53.4c2.3-4.8,5.8-11.1,9.9-19.1c4-7.9,7-14.8,8.7-20.7c19.5,0.8,38.9,1.7,58.4,2.5
			c0.6,23.7-9.7,45.9,2.2,69.1c17.1,33.5,57.1,60.6,76.3,94c-2.3-33.9-38.8-62.5-48-95.5c0.5-19.4,7.5-34.4,18.6-52.2
			c1.4-2.6,2.8-5.3,4.1-7.8c1.3-2.6,2.8-5.9,3.9-10.1c8.9-0.7,13.4-1,22.3-1.7c11.9-0.3,17.9-0.5,29.8-0.9c-1,4.8-1.8,7.1-3.7,11.7
			c-9.6,19.2-23.2,37.6-24.2,56.2c-1.6,33.4,52.7,69.2,47.2,103.2c-3.6,21.9-27.6,47.1-27.5,70.9c0,5.9-0.3,14.9-0.3,26.6v39.7
			c-11.5,0-21.2-0.1-29.1-0.2c-7.9-0.1-13.3-0.3-16-0.5c-2.8-0.1-4.4-0.2-4.8-0.2h-2.5c-14.9-42.9-24.7-80.4-26-124.2
			c-16.2,36.1-21.6,62.2-21.8,100.3v19.8c0,4.2-0.1,8-0.3,11.3C428.9,343.3,419,343.4,399.1,343.8L399.1,343.8z"/>
		<path class="st7" d="M706.3,346c-12.6,0.1-23.6-2.4-32.5-7.2c-8.9-4.8-15.8-10.8-20.7-17.8c-4.8-7.1-8.6-16.9-11.2-29.5
			c-2.7-12.6-5.4-25.1-3.9-35.1c1.5-10,8-20.6,14.8-34.3c1.9-3.8,7.9-11.4,7.1-26.3c-0.8-14.7-10.9-29.3-20.4-42.7
			c-13.6-19.9-37.3-45.6-29.7-68.8c7-18.3,19.3-35.4,25.3-53.9c4.5,0,14-0.2,28.5-0.6c14.5-0.4,22.3-0.6,23.6-0.6
			c-1.9,8.5-5.7,15.6-9.4,21.8c-3.7,6.2-11.9,16.6-16.5,32.7c-5.4,19,7.4,37.3,18.6,54.1c21.6,32.5,39.5,58.3,23,93.7
			c-2.5,5.5-3.6,9.9-3.3,13c0.3,3.2,1,5,1.9,5.4c0.9,0.4,2.1,0.6,3.5,0.6c4.3,0,8.3-1.5,12.2-4.3c3.9-2.8,7.8-6.7,11.7-11.6
			c3.9-4.9,7.2-9.2,9.5-13.1c2.3-3.9,4.7-8.7,6.1-14.9c2.3-47-63.1-85.5-43.5-132.9c5.8-13.9,16.4-26.7,21.1-40.8
			c19.2-0.7,28.8-1,48-1.7c-0.8,2.8-6.4,14.7-16.9,35.4c-14.4,28.4-0.7,50.4,17,76.3c12.8,18.8,32,40.5,27.3,60.4
			c-6.2,26.6-24.8,53.5-32,82.2C760.1,306.8,747.5,345.8,706.3,346L706.3,346z"/>
		<path class="st7" d="M836,344.2c-6.8,0-13.4-1.5-19.7-4.5c-6.4-3-11.3-6.1-14.8-9.2c-3.5-3.2-7.9-7.7-13.2-13.5
			c-5.4-5.9-8.9-9.7-10.8-11.5c8.6-19.9,14.2-44.1,32.9-61.2c6.4,6.8,14.2,10.6,21.6,10.6c7,0,15-2.9,25.2-8.2
			c10.2-5.3,17.7-11.5,21.9-19.2c0.6-1.2,1.2-2.4,1.7-3.8c0.5-1.4,0.8-3.4,0.7-5.9c-0.1-2.6-0.9-4.9-2.3-7.1
			c-1.4-2.2-4.1-4.3-8.2-6.4c-4.1-2.1-9.1-3.7-14.8-4.5c-12.8-1.8-21.6-7-32.1-18.3c-16.8-18.2-33.7-38.3-44.4-57.3
			c-19.1-33.8,2.5-61.1,44.7-85.3c13-7.3,24.6-12,36.7-13.4s22.5-0.9,31,1.7c8.4,2.6,16,6.3,22,10.9c-2.4,3.1-3.7,4.6-6.4,7.7
			c-16.4,17.9-38.5,37.4-38,59.5c-7.4-4.8-12.4-7-16.6-7c-6,0-10.4,1.2-12.9,3.9c-2.5,2.7-3.3,5-2.9,6.8c0.4,1.8,1.2,3.8,2.4,6
			c6.5,12.7,19.3,22.9,33.1,29.1c24.7,11,49.3,27,62.4,45.2c11.1,15.5,6.7,32.8-1.6,48c-8.2,15-11.4,31.3-16.3,47.2
			c-4.5,14.5-11.1,25.8-17.9,33.1c-6.8,7.4-14.8,13.2-24.1,17.6c-9.2,4.4-16.8,7-22.5,7.9C847.3,343.8,841.6,344.2,836,344.2
			L836,344.2z"/>
	</mask>
	<path class="st10" d="M223,348.8c-11.2-0.1-21.2-3.1-29.6-9.2c-8.4-6.2-14.9-13.6-19.3-22.3c-4.4-8.7-8-19.2-10.6-31.6
		c-2.7-12.3-4.9-23.4-3.5-31.4c1.3-8,5-15.4,9.3-23c1.8-3.2,3.7-6.6,5.4-10.1c1.2-2.3,1.8-3.4,2.9-5.8c2.7-6.9,6.6-15.7,1.2-30.2
		c-5.3-14.5-14.6-26.5-18.7-32.6c-12.5-18.4-30.6-39.1-28.6-59.4c1.1-11.4,9.4-21.9,19-32c10.2-10.7,23.6-21.3,37.5-30
		c12.7-8,23.2-12.4,34.5-12.4c22.7,0.1,37.6,10.8,42.4,24.9c3.2,9.6-1.4,19.9-2,29.4c-1.2,18.5,2.5,31.2,12,49.3
		c11.7,18.6,28.5,37.9,35.8,55.5c11.5,27.7-11.1,49.8-18.1,77.5c-5.7,22.7-5.5,49-19.8,71.4C264.1,340.2,245.1,348.9,223,348.8
		L223,348.8z M226.5,219.6c-1,2.2-2.1,4.6-3.4,7.2c-1.2,2.7-2.6,5.9-3.8,9.7c-1.2,3.8-1.4,7.1-0.7,9.6c0.8,2.6,2.6,3.9,5.3,3.9h0.6
		c5.6,0,10.5-4,16.1-11.1c5.7-7.2,15.3-16.8,18.8-34.3c1.2-6.1,1.7-9.3-0.4-16.8c-10.1-23.3-46.5-90-64-91.2
		c-10.7-0.7-0.2,30.7,5.7,40.5C218.5,163.2,241.8,190.5,226.5,219.6L226.5,219.6z"/>
	<defs>
		
			<filter id="Adobe_OpacityMaskFilter_00000009572579168318919330000018365624083165738638_" filterUnits="userSpaceOnUse" x="283.9" y="28.2" width="107.9" height="319.6">
			<feColorMatrix  type="matrix" values="1 0 0 0 0  0 1 0 0 0  0 0 1 0 0  0 0 0 1 0"/>
		</filter>
	</defs>
	
		<mask maskUnits="userSpaceOnUse" x="283.9" y="28.2" width="107.9" height="319.6" id="path-2-inside-1_156_24_00000024712126337442814550000012442754946487054481_">
		<path style="fill:#FFFFFF;filter:url(#Adobe_OpacityMaskFilter_00000009572579168318919330000018365624083165738638_);" d="
			M71.7,344.7c-9.2,0.3-17.4-1.5-24.4-5.4c-7-3.9-12.7-9.1-17.1-15.6c-4.4-6.5-8.1-14.4-10.9-23.9c-2.9-9.5-4.9-19.2-6.2-29.3
			c-1.2-10.1,0.2-20.2,4.6-29.9c3.8-8.2,9-16.2,13-25.4c15.2-0.6,22.7-0.9,37.9-1.5c-0.2,0.9-0.3,1.4-0.5,2.2
			c-0.3,1.2-0.7,3.3-1.5,6c-0.7,2.7-1.5,5.4-2.2,8.2C62.3,238,64,242,69.1,242H71c4.4,0.2,10-2.8,17.3-8.8
			c6.4-5.3,11.3-10.8,13.6-16.9c3.1-8.1,4.8-12.2,3.4-22.6c-2.5-14.5-12.6-28.1-21.3-41.3C65.2,125.6,42.4,98.3,59,68.3
			c-4,0.2-6,0.2-10.1,0.4c8.7-18.5,14.3-28,14.8-29.1c1.2-2.8,1.8-4.2,2.7-7c22.6-1.7,45.3-3.4,67.9-5.1c-2.5,13.9-7.3,20-14.2,32.8
			h-0.3c-4.6,0.5-6.9,0.7-11.5,1.2c-30.2,53.9,42.3,86,42.7,137.2c-4.2,20.2-18,39.5-22.6,58.1c-3.9,16.1-5.2,35.5-10.5,52.2
			c-4.6,14.5-17,34.1-42.9,35.6L71.7,344.7L71.7,344.7z"/>
		<path class="st7" d="M223,348.8c-11.2-0.1-21.2-3.1-29.6-9.2c-8.4-6.2-14.9-13.6-19.3-22.3c-4.4-8.7-8-19.2-10.6-31.6
			c-2.7-12.3-4.9-23.4-3.5-31.4c1.3-8,5-15.4,9.3-23c1.8-3.2,3.7-6.6,5.4-10.1c1.2-2.3,1.8-3.4,2.9-5.8c2.7-6.9,6.6-15.7,1.2-30.2
			c-5.3-14.5-14.6-26.5-18.7-32.6c-12.5-18.4-30.6-39.1-28.6-59.4c1.1-11.4,9.4-21.9,19-32c10.2-10.7,23.6-21.3,37.5-30
			c12.7-8,23.2-12.4,34.5-12.4c22.7,0.1,37.6,10.8,42.4,24.9c3.2,9.6-1.4,19.9-2,29.4c-1.2,18.5,2.5,31.2,12,49.3
			c11.7,18.6,28.5,37.9,35.8,55.5c11.5,27.7-11.1,49.8-18.1,77.5c-5.7,22.7-5.5,49-19.8,71.4C264.1,340.2,245.1,348.9,223,348.8
			L223,348.8z M226.5,219.6c-1,2.2-2.1,4.6-3.4,7.2c-1.2,2.7-2.6,5.9-3.8,9.7c-1.2,3.8-1.4,7.1-0.7,9.6c0.8,2.6,2.6,3.9,5.3,3.9h0.6
			c5.6,0,10.5-4,16.1-11.1c5.7-7.2,15.3-16.8,18.8-34.3c1.2-6.1,1.7-9.3-0.4-16.8c-10.1-23.3-46.5-90-64-91.2
			c-10.7-0.7-0.2,30.7,5.7,40.5C218.5,163.2,241.8,190.5,226.5,219.6L226.5,219.6z"/>
		<path class="st7" d="M300.8,51.6c0.7-1.3,2.5-4.2,4.8-8.8c2.3-4.6,3.7-8.3,4.6-11.1h42.2c3.1,0.2,4.7,0.3,7.9,0.4
			c1.4,0.2,2.1,0.3,3.6,0.4c-6.9,15-15.3,29.4-22.9,44.2c-6.4,15.4-2,27.6,4.9,42.6c1.7,3,2.6,4.5,4.6,7.6
			c16.9,24.9,42.4,52.1,37,80.4c-3.5,18.8-16.8,36.1-21.1,54.9c-0.4,26.6,0,53.1,0.1,79.7c-21,0.9-31.4,1.4-52.4,2.3h-4.3
			c0.2-24.6-1-49.5,0.6-74.1c1.4-21.8,15.7-38.5,21.5-59.4c7.5-26.9-13.1-50-28.7-74.1C282.7,105.1,282.5,83.6,300.8,51.6
			L300.8,51.6z"/>
		<path class="st7" d="M399.1,343.8c-1.2,0-2.1-0.1-2.5-0.2c-0.4-0.1-0.7-0.2-0.9-0.2c0-3.3-0.2-8.3-0.5-14.9
			c-0.3-6.6-0.6-11.6-0.8-14.9c-0.1-21.6-3.8-44.9,3.6-66.1c7.2-20.8,18.1-36.3,18.1-58.1c-6.7-22.8-27.5-44.8-39.3-65.3
			c-10.3-18-14.9-33.9-5.4-53.4c2.3-4.8,5.8-11.1,9.9-19.1c4-7.9,7-14.8,8.7-20.7c19.5,0.8,38.9,1.7,58.4,2.5
			c0.6,23.7-9.7,45.9,2.2,69.1c17.1,33.5,57.1,60.6,76.3,94c-2.3-33.9-38.8-62.5-48-95.5c0.5-19.4,7.5-34.4,18.6-52.2
			c1.4-2.6,2.8-5.3,4.1-7.8c1.3-2.6,2.8-5.9,3.9-10.1c8.9-0.7,13.4-1,22.3-1.7c11.9-0.3,17.9-0.5,29.8-0.9c-1,4.8-1.8,7.1-3.7,11.7
			c-9.6,19.2-23.2,37.6-24.2,56.2c-1.6,33.4,52.7,69.2,47.2,103.2c-3.6,21.9-27.6,47.1-27.5,70.9c0,5.9-0.3,14.9-0.3,26.6v39.7
			c-11.5,0-21.2-0.1-29.1-0.2c-7.9-0.1-13.3-0.3-16-0.5c-2.8-0.1-4.4-0.2-4.8-0.2h-2.5c-14.9-42.9-24.7-80.4-26-124.2
			c-16.2,36.1-21.6,62.2-21.8,100.3v19.8c0,4.2-0.1,8-0.3,11.3C428.9,343.3,419,343.4,399.1,343.8L399.1,343.8z"/>
		<path class="st7" d="M706.3,346c-12.6,0.1-23.6-2.4-32.5-7.2c-8.9-4.8-15.8-10.8-20.7-17.8c-4.8-7.1-8.6-16.9-11.2-29.5
			c-2.7-12.6-5.4-25.1-3.9-35.1c1.5-10,8-20.6,14.8-34.3c1.9-3.8,7.9-11.4,7.1-26.3c-0.8-14.7-10.9-29.3-20.4-42.7
			c-13.6-19.9-37.3-45.6-29.7-68.8c7-18.3,19.3-35.4,25.3-53.9c4.5,0,14-0.2,28.5-0.6c14.5-0.4,22.3-0.6,23.6-0.6
			c-1.9,8.5-5.7,15.6-9.4,21.8c-3.7,6.2-11.9,16.6-16.5,32.7c-5.4,19,7.4,37.3,18.6,54.1c21.6,32.5,39.5,58.3,23,93.7
			c-2.5,5.5-3.6,9.9-3.3,13c0.3,3.2,1,5,1.9,5.4c0.9,0.4,2.1,0.6,3.5,0.6c4.3,0,8.3-1.5,12.2-4.3c3.9-2.8,7.8-6.7,11.7-11.6
			c3.9-4.9,7.2-9.2,9.5-13.1c2.3-3.9,4.7-8.7,6.1-14.9c2.3-47-63.1-85.5-43.5-132.9c5.8-13.9,16.4-26.7,21.1-40.8
			c19.2-0.7,28.8-1,48-1.7c-0.8,2.8-6.4,14.7-16.9,35.4c-14.4,28.4-0.7,50.4,17,76.3c12.8,18.8,32,40.5,27.3,60.4
			c-6.2,26.6-24.8,53.5-32,82.2C760.1,306.8,747.5,345.8,706.3,346L706.3,346z"/>
		<path class="st7" d="M836,344.2c-6.8,0-13.4-1.5-19.7-4.5c-6.4-3-11.3-6.1-14.8-9.2c-3.5-3.2-7.9-7.7-13.2-13.5
			c-5.4-5.9-8.9-9.7-10.8-11.5c8.6-19.9,14.2-44.1,32.9-61.2c6.4,6.8,14.2,10.6,21.6,10.6c7,0,15-2.9,25.2-8.2
			c10.2-5.3,17.7-11.5,21.9-19.2c0.6-1.2,1.2-2.4,1.7-3.8c0.5-1.4,0.8-3.4,0.7-5.9c-0.1-2.6-0.9-4.9-2.3-7.1
			c-1.4-2.2-4.1-4.3-8.2-6.4c-4.1-2.1-9.1-3.7-14.8-4.5c-12.8-1.8-21.6-7-32.1-18.3c-16.8-18.2-33.7-38.3-44.4-57.3
			c-19.1-33.8,2.5-61.1,44.7-85.3c13-7.3,24.6-12,36.7-13.4s22.5-0.9,31,1.7c8.4,2.6,16,6.3,22,10.9c-2.4,3.1-3.7,4.6-6.4,7.7
			c-16.4,17.9-38.5,37.4-38,59.5c-7.4-4.8-12.4-7-16.6-7c-6,0-10.4,1.2-12.9,3.9c-2.5,2.7-3.3,5-2.9,6.8c0.4,1.8,1.2,3.8,2.4,6
			c6.5,12.7,19.3,22.9,33.1,29.1c24.7,11,49.3,27,62.4,45.2c11.1,15.5,6.7,32.8-1.6,48c-8.2,15-11.4,31.3-16.3,47.2
			c-4.5,14.5-11.1,25.8-17.9,33.1c-6.8,7.4-14.8,13.2-24.1,17.6c-9.2,4.4-16.8,7-22.5,7.9C847.3,343.8,841.6,344.2,836,344.2
			L836,344.2z"/>
	</mask>
	<path class="st12" d="M300.8,51.6c0.7-1.3,2.5-4.2,4.8-8.8c2.3-4.6,3.7-8.3,4.6-11.1h42.2c3.1,0.2,4.7,0.3,7.9,0.4
		c1.4,0.2,2.1,0.3,3.6,0.4c-6.9,15-15.3,29.4-22.9,44.2c-6.4,15.4-2,27.6,4.9,42.6c1.7,3,2.6,4.5,4.6,7.6
		c16.9,24.9,42.4,52.1,37,80.4c-3.5,18.8-16.8,36.1-21.1,54.9c-0.4,26.6,0,53.1,0.1,79.7c-21,0.9-31.4,1.4-52.4,2.3h-4.3
		c0.2-24.6-1-49.5,0.6-74.1c1.4-21.8,15.7-38.5,21.5-59.4c7.5-26.9-13.1-50-28.7-74.1C282.7,105.1,282.5,83.6,300.8,51.6L300.8,51.6
		z"/>
	<defs>
		
			<filter id="Adobe_OpacityMaskFilter_00000134212017785566103580000018327681096292049316_" filterUnits="userSpaceOnUse" x="362.6" y="24.7" width="218.4" height="322.7">
			<feColorMatrix  type="matrix" values="1 0 0 0 0  0 1 0 0 0  0 0 1 0 0  0 0 0 1 0"/>
		</filter>
	</defs>
	
		<mask maskUnits="userSpaceOnUse" x="362.6" y="24.7" width="218.4" height="322.7" id="path-2-inside-1_156_24_00000060027376199267605390000016997619750069013937_">
		<path style="fill:#FFFFFF;filter:url(#Adobe_OpacityMaskFilter_00000134212017785566103580000018327681096292049316_);" d="
			M71.7,344.7c-9.2,0.3-17.4-1.5-24.4-5.4c-7-3.9-12.7-9.1-17.1-15.6c-4.4-6.5-8.1-14.4-10.9-23.9c-2.9-9.5-4.9-19.2-6.2-29.3
			c-1.2-10.1,0.2-20.2,4.6-29.9c3.8-8.2,9-16.2,13-25.4c15.2-0.6,22.7-0.9,37.9-1.5c-0.2,0.9-0.3,1.4-0.5,2.2
			c-0.3,1.2-0.7,3.3-1.5,6c-0.7,2.7-1.5,5.4-2.2,8.2C62.3,238,64,242,69.1,242H71c4.4,0.2,10-2.8,17.3-8.8
			c6.4-5.3,11.3-10.8,13.6-16.9c3.1-8.1,4.8-12.2,3.4-22.6c-2.5-14.5-12.6-28.1-21.3-41.3C65.2,125.6,42.4,98.3,59,68.3
			c-4,0.2-6,0.2-10.1,0.4c8.7-18.5,14.3-28,14.8-29.1c1.2-2.8,1.8-4.2,2.7-7c22.6-1.7,45.3-3.4,67.9-5.1c-2.5,13.9-7.3,20-14.2,32.8
			h-0.3c-4.6,0.5-6.9,0.7-11.5,1.2c-30.2,53.9,42.3,86,42.7,137.2c-4.2,20.2-18,39.5-22.6,58.1c-3.9,16.1-5.2,35.5-10.5,52.2
			c-4.6,14.5-17,34.1-42.9,35.6L71.7,344.7L71.7,344.7z"/>
		<path class="st7" d="M223,348.8c-11.2-0.1-21.2-3.1-29.6-9.2c-8.4-6.2-14.9-13.6-19.3-22.3c-4.4-8.7-8-19.2-10.6-31.6
			c-2.7-12.3-4.9-23.4-3.5-31.4c1.3-8,5-15.4,9.3-23c1.8-3.2,3.7-6.6,5.4-10.1c1.2-2.3,1.8-3.4,2.9-5.8c2.7-6.9,6.6-15.7,1.2-30.2
			c-5.3-14.5-14.6-26.5-18.7-32.6c-12.5-18.4-30.6-39.1-28.6-59.4c1.1-11.4,9.4-21.9,19-32c10.2-10.7,23.6-21.3,37.5-30
			c12.7-8,23.2-12.4,34.5-12.4c22.7,0.1,37.6,10.8,42.4,24.9c3.2,9.6-1.4,19.9-2,29.4c-1.2,18.5,2.5,31.2,12,49.3
			c11.7,18.6,28.5,37.9,35.8,55.5c11.5,27.7-11.1,49.8-18.1,77.5c-5.7,22.7-5.5,49-19.8,71.4C264.1,340.2,245.1,348.9,223,348.8
			L223,348.8z M226.5,219.6c-1,2.2-2.1,4.6-3.4,7.2c-1.2,2.7-2.6,5.9-3.8,9.7c-1.2,3.8-1.4,7.1-0.7,9.6c0.8,2.6,2.6,3.9,5.3,3.9h0.6
			c5.6,0,10.5-4,16.1-11.1c5.7-7.2,15.3-16.8,18.8-34.3c1.2-6.1,1.7-9.3-0.4-16.8c-10.1-23.3-46.5-90-64-91.2
			c-10.7-0.7-0.2,30.7,5.7,40.5C218.5,163.2,241.8,190.5,226.5,219.6L226.5,219.6z"/>
		<path class="st7" d="M300.8,51.6c0.7-1.3,2.5-4.2,4.8-8.8c2.3-4.6,3.7-8.3,4.6-11.1h42.2c3.1,0.2,4.7,0.3,7.9,0.4
			c1.4,0.2,2.1,0.3,3.6,0.4c-6.9,15-15.3,29.4-22.9,44.2c-6.4,15.4-2,27.6,4.9,42.6c1.7,3,2.6,4.5,4.6,7.6
			c16.9,24.9,42.4,52.1,37,80.4c-3.5,18.8-16.8,36.1-21.1,54.9c-0.4,26.6,0,53.1,0.1,79.7c-21,0.9-31.4,1.4-52.4,2.3h-4.3
			c0.2-24.6-1-49.5,0.6-74.1c1.4-21.8,15.7-38.5,21.5-59.4c7.5-26.9-13.1-50-28.7-74.1C282.7,105.1,282.5,83.6,300.8,51.6
			L300.8,51.6z"/>
		<path class="st7" d="M399.1,343.8c-1.2,0-2.1-0.1-2.5-0.2c-0.4-0.1-0.7-0.2-0.9-0.2c0-3.3-0.2-8.3-0.5-14.9
			c-0.3-6.6-0.6-11.6-0.8-14.9c-0.1-21.6-3.8-44.9,3.6-66.1c7.2-20.8,18.1-36.3,18.1-58.1c-6.7-22.8-27.5-44.8-39.3-65.3
			c-10.3-18-14.9-33.9-5.4-53.4c2.3-4.8,5.8-11.1,9.9-19.1c4-7.9,7-14.8,8.7-20.7c19.5,0.8,38.9,1.7,58.4,2.5
			c0.6,23.7-9.7,45.9,2.2,69.1c17.1,33.5,57.1,60.6,76.3,94c-2.3-33.9-38.8-62.5-48-95.5c0.5-19.4,7.5-34.4,18.6-52.2
			c1.4-2.6,2.8-5.3,4.1-7.8c1.3-2.6,2.8-5.9,3.9-10.1c8.9-0.7,13.4-1,22.3-1.7c11.9-0.3,17.9-0.5,29.8-0.9c-1,4.8-1.8,7.1-3.7,11.7
			c-9.6,19.2-23.2,37.6-24.2,56.2c-1.6,33.4,52.7,69.2,47.2,103.2c-3.6,21.9-27.6,47.1-27.5,70.9c0,5.9-0.3,14.9-0.3,26.6v39.7
			c-11.5,0-21.2-0.1-29.1-0.2c-7.9-0.1-13.3-0.3-16-0.5c-2.8-0.1-4.4-0.2-4.8-0.2h-2.5c-14.9-42.9-24.7-80.4-26-124.2
			c-16.2,36.1-21.6,62.2-21.8,100.3v19.8c0,4.2-0.1,8-0.3,11.3C428.9,343.3,419,343.4,399.1,343.8L399.1,343.8z"/>
		<path class="st7" d="M706.3,346c-12.6,0.1-23.6-2.4-32.5-7.2c-8.9-4.8-15.8-10.8-20.7-17.8c-4.8-7.1-8.6-16.9-11.2-29.5
			c-2.7-12.6-5.4-25.1-3.9-35.1c1.5-10,8-20.6,14.8-34.3c1.9-3.8,7.9-11.4,7.1-26.3c-0.8-14.7-10.9-29.3-20.4-42.7
			c-13.6-19.9-37.3-45.6-29.7-68.8c7-18.3,19.3-35.4,25.3-53.9c4.5,0,14-0.2,28.5-0.6c14.5-0.4,22.3-0.6,23.6-0.6
			c-1.9,8.5-5.7,15.6-9.4,21.8c-3.7,6.2-11.9,16.6-16.5,32.7c-5.4,19,7.4,37.3,18.6,54.1c21.6,32.5,39.5,58.3,23,93.7
			c-2.5,5.5-3.6,9.9-3.3,13c0.3,3.2,1,5,1.9,5.4c0.9,0.4,2.1,0.6,3.5,0.6c4.3,0,8.3-1.5,12.2-4.3c3.9-2.8,7.8-6.7,11.7-11.6
			c3.9-4.9,7.2-9.2,9.5-13.1c2.3-3.9,4.7-8.7,6.1-14.9c2.3-47-63.1-85.5-43.5-132.9c5.8-13.9,16.4-26.7,21.1-40.8
			c19.2-0.7,28.8-1,48-1.7c-0.8,2.8-6.4,14.7-16.9,35.4c-14.4,28.4-0.7,50.4,17,76.3c12.8,18.8,32,40.5,27.3,60.4
			c-6.2,26.6-24.8,53.5-32,82.2C760.1,306.8,747.5,345.8,706.3,346L706.3,346z"/>
		<path class="st7" d="M836,344.2c-6.8,0-13.4-1.5-19.7-4.5c-6.4-3-11.3-6.1-14.8-9.2c-3.5-3.2-7.9-7.7-13.2-13.5
			c-5.4-5.9-8.9-9.7-10.8-11.5c8.6-19.9,14.2-44.1,32.9-61.2c6.4,6.8,14.2,10.6,21.6,10.6c7,0,15-2.9,25.2-8.2
			c10.2-5.3,17.7-11.5,21.9-19.2c0.6-1.2,1.2-2.4,1.7-3.8c0.5-1.4,0.8-3.4,0.7-5.9c-0.1-2.6-0.9-4.9-2.3-7.1
			c-1.4-2.2-4.1-4.3-8.2-6.4c-4.1-2.1-9.1-3.7-14.8-4.5c-12.8-1.8-21.6-7-32.1-18.3c-16.8-18.2-33.7-38.3-44.4-57.3
			c-19.1-33.8,2.5-61.1,44.7-85.3c13-7.3,24.6-12,36.7-13.4s22.5-0.9,31,1.7c8.4,2.6,16,6.3,22,10.9c-2.4,3.1-3.7,4.6-6.4,7.7
			c-16.4,17.9-38.5,37.4-38,59.5c-7.4-4.8-12.4-7-16.6-7c-6,0-10.4,1.2-12.9,3.9c-2.5,2.7-3.3,5-2.9,6.8c0.4,1.8,1.2,3.8,2.4,6
			c6.5,12.7,19.3,22.9,33.1,29.1c24.7,11,49.3,27,62.4,45.2c11.1,15.5,6.7,32.8-1.6,48c-8.2,15-11.4,31.3-16.3,47.2
			c-4.5,14.5-11.1,25.8-17.9,33.1c-6.8,7.4-14.8,13.2-24.1,17.6c-9.2,4.4-16.8,7-22.5,7.9C847.3,343.8,841.6,344.2,836,344.2
			L836,344.2z"/>
	</mask>
	<path class="st14" d="M399.1,343.8c-1.2,0-2.1-0.1-2.5-0.2c-0.4-0.1-0.7-0.2-0.9-0.2c0-3.3-0.2-8.3-0.5-14.9
		c-0.3-6.6-0.6-11.6-0.8-14.9c-0.1-21.6-3.8-44.9,3.6-66.1c7.2-20.8,18.1-36.3,18.1-58.1c-6.7-22.8-27.5-44.8-39.3-65.3
		c-10.3-18-14.9-33.9-5.4-53.4c2.3-4.8,5.8-11.1,9.9-19.1c4-7.9,7-14.8,8.7-20.7c19.5,0.8,38.9,1.7,58.4,2.5
		c0.6,23.7-9.7,45.9,2.2,69.1c17.1,33.5,57.1,60.6,76.3,94c-2.3-33.9-38.8-62.5-48-95.5c0.5-19.4,7.5-34.4,18.6-52.2
		c1.4-2.6,2.8-5.3,4.1-7.8c1.3-2.6,2.8-5.9,3.9-10.1c8.9-0.7,13.4-1,22.3-1.7c11.9-0.3,17.9-0.5,29.8-0.9c-1,4.8-1.8,7.1-3.7,11.7
		c-9.6,19.2-23.2,37.6-24.2,56.2c-1.6,33.4,52.7,69.2,47.2,103.2c-3.6,21.9-27.6,47.1-27.5,70.9c0,5.9-0.3,14.9-0.3,26.6v39.7
		c-11.5,0-21.2-0.1-29.1-0.2c-7.9-0.1-13.3-0.3-16-0.5c-2.8-0.1-4.4-0.2-4.8-0.2h-2.5c-14.9-42.9-24.7-80.4-26-124.2
		c-16.2,36.1-21.6,62.2-21.8,100.3v19.8c0,4.2-0.1,8-0.3,11.3C428.9,343.3,419,343.4,399.1,343.8L399.1,343.8z"/>
	<defs>
		
			<filter id="Adobe_OpacityMaskFilter_00000051370832234663867440000011339475760408379291_" filterUnits="userSpaceOnUse" x="604.7" y="25.7" width="197.1" height="324">
			<feColorMatrix  type="matrix" values="1 0 0 0 0  0 1 0 0 0  0 0 1 0 0  0 0 0 1 0"/>
		</filter>
	</defs>
	
		<mask maskUnits="userSpaceOnUse" x="604.7" y="25.7" width="197.1" height="324" id="path-2-inside-1_156_24_00000018929505231040862890000013801764238373664419_">
		<path style="fill:#FFFFFF;filter:url(#Adobe_OpacityMaskFilter_00000051370832234663867440000011339475760408379291_);" d="
			M71.7,344.7c-9.2,0.3-17.4-1.5-24.4-5.4c-7-3.9-12.7-9.1-17.1-15.6c-4.4-6.5-8.1-14.4-10.9-23.9c-2.9-9.5-4.9-19.2-6.2-29.3
			c-1.2-10.1,0.2-20.2,4.6-29.9c3.8-8.2,9-16.2,13-25.4c15.2-0.6,22.7-0.9,37.9-1.5c-0.2,0.9-0.3,1.4-0.5,2.2
			c-0.3,1.2-0.7,3.3-1.5,6c-0.7,2.7-1.5,5.4-2.2,8.2C62.3,238,64,242,69.1,242H71c4.4,0.2,10-2.8,17.3-8.8
			c6.4-5.3,11.3-10.8,13.6-16.9c3.1-8.1,4.8-12.2,3.4-22.6c-2.5-14.5-12.6-28.1-21.3-41.3C65.2,125.6,42.4,98.3,59,68.3
			c-4,0.2-6,0.2-10.1,0.4c8.7-18.5,14.3-28,14.8-29.1c1.2-2.8,1.8-4.2,2.7-7c22.6-1.7,45.3-3.4,67.9-5.1c-2.5,13.9-7.3,20-14.2,32.8
			h-0.3c-4.6,0.5-6.9,0.7-11.5,1.2c-30.2,53.9,42.3,86,42.7,137.2c-4.2,20.2-18,39.5-22.6,58.1c-3.9,16.1-5.2,35.5-10.5,52.2
			c-4.6,14.5-17,34.1-42.9,35.6L71.7,344.7L71.7,344.7z"/>
		<path class="st7" d="M223,348.8c-11.2-0.1-21.2-3.1-29.6-9.2c-8.4-6.2-14.9-13.6-19.3-22.3c-4.4-8.7-8-19.2-10.6-31.6
			c-2.7-12.3-4.9-23.4-3.5-31.4c1.3-8,5-15.4,9.3-23c1.8-3.2,3.7-6.6,5.4-10.1c1.2-2.3,1.8-3.4,2.9-5.8c2.7-6.9,6.6-15.7,1.2-30.2
			c-5.3-14.5-14.6-26.5-18.7-32.6c-12.5-18.4-30.6-39.1-28.6-59.4c1.1-11.4,9.4-21.9,19-32c10.2-10.7,23.6-21.3,37.5-30
			c12.7-8,23.2-12.4,34.5-12.4c22.7,0.1,37.6,10.8,42.4,24.9c3.2,9.6-1.4,19.9-2,29.4c-1.2,18.5,2.5,31.2,12,49.3
			c11.7,18.6,28.5,37.9,35.8,55.5c11.5,27.7-11.1,49.8-18.1,77.5c-5.7,22.7-5.5,49-19.8,71.4C264.1,340.2,245.1,348.9,223,348.8
			L223,348.8z M226.5,219.6c-1,2.2-2.1,4.6-3.4,7.2c-1.2,2.7-2.6,5.9-3.8,9.7c-1.2,3.8-1.4,7.1-0.7,9.6c0.8,2.6,2.6,3.9,5.3,3.9h0.6
			c5.6,0,10.5-4,16.1-11.1c5.7-7.2,15.3-16.8,18.8-34.3c1.2-6.1,1.7-9.3-0.4-16.8c-10.1-23.3-46.5-90-64-91.2
			c-10.7-0.7-0.2,30.7,5.7,40.5C218.5,163.2,241.8,190.5,226.5,219.6L226.5,219.6z"/>
		<path class="st7" d="M300.8,51.6c0.7-1.3,2.5-4.2,4.8-8.8c2.3-4.6,3.7-8.3,4.6-11.1h42.2c3.1,0.2,4.7,0.3,7.9,0.4
			c1.4,0.2,2.1,0.3,3.6,0.4c-6.9,15-15.3,29.4-22.9,44.2c-6.4,15.4-2,27.6,4.9,42.6c1.7,3,2.6,4.5,4.6,7.6
			c16.9,24.9,42.4,52.1,37,80.4c-3.5,18.8-16.8,36.1-21.1,54.9c-0.4,26.6,0,53.1,0.1,79.7c-21,0.9-31.4,1.4-52.4,2.3h-4.3
			c0.2-24.6-1-49.5,0.6-74.1c1.4-21.8,15.7-38.5,21.5-59.4c7.5-26.9-13.1-50-28.7-74.1C282.7,105.1,282.5,83.6,300.8,51.6
			L300.8,51.6z"/>
		<path class="st7" d="M399.1,343.8c-1.2,0-2.1-0.1-2.5-0.2c-0.4-0.1-0.7-0.2-0.9-0.2c0-3.3-0.2-8.3-0.5-14.9
			c-0.3-6.6-0.6-11.6-0.8-14.9c-0.1-21.6-3.8-44.9,3.6-66.1c7.2-20.8,18.1-36.3,18.1-58.1c-6.7-22.8-27.5-44.8-39.3-65.3
			c-10.3-18-14.9-33.9-5.4-53.4c2.3-4.8,5.8-11.1,9.9-19.1c4-7.9,7-14.8,8.7-20.7c19.5,0.8,38.9,1.7,58.4,2.5
			c0.6,23.7-9.7,45.9,2.2,69.1c17.1,33.5,57.1,60.6,76.3,94c-2.3-33.9-38.8-62.5-48-95.5c0.5-19.4,7.5-34.4,18.6-52.2
			c1.4-2.6,2.8-5.3,4.1-7.8c1.3-2.6,2.8-5.9,3.9-10.1c8.9-0.7,13.4-1,22.3-1.7c11.9-0.3,17.9-0.5,29.8-0.9c-1,4.8-1.8,7.1-3.7,11.7
			c-9.6,19.2-23.2,37.6-24.2,56.2c-1.6,33.4,52.7,69.2,47.2,103.2c-3.6,21.9-27.6,47.1-27.5,70.9c0,5.9-0.3,14.9-0.3,26.6v39.7
			c-11.5,0-21.2-0.1-29.1-0.2c-7.9-0.1-13.3-0.3-16-0.5c-2.8-0.1-4.4-0.2-4.8-0.2h-2.5c-14.9-42.9-24.7-80.4-26-124.2
			c-16.2,36.1-21.6,62.2-21.8,100.3v19.8c0,4.2-0.1,8-0.3,11.3C428.9,343.3,419,343.4,399.1,343.8L399.1,343.8z"/>
		<path class="st7" d="M706.3,346c-12.6,0.1-23.6-2.4-32.5-7.2c-8.9-4.8-15.8-10.8-20.7-17.8c-4.8-7.1-8.6-16.9-11.2-29.5
			c-2.7-12.6-5.4-25.1-3.9-35.1c1.5-10,8-20.6,14.8-34.3c1.9-3.8,7.9-11.4,7.1-26.3c-0.8-14.7-10.9-29.3-20.4-42.7
			c-13.6-19.9-37.3-45.6-29.7-68.8c7-18.3,19.3-35.4,25.3-53.9c4.5,0,14-0.2,28.5-0.6c14.5-0.4,22.3-0.6,23.6-0.6
			c-1.9,8.5-5.7,15.6-9.4,21.8c-3.7,6.2-11.9,16.6-16.5,32.7c-5.4,19,7.4,37.3,18.6,54.1c21.6,32.5,39.5,58.3,23,93.7
			c-2.5,5.5-3.6,9.9-3.3,13c0.3,3.2,1,5,1.9,5.4c0.9,0.4,2.1,0.6,3.5,0.6c4.3,0,8.3-1.5,12.2-4.3c3.9-2.8,7.8-6.7,11.7-11.6
			c3.9-4.9,7.2-9.2,9.5-13.1c2.3-3.9,4.7-8.7,6.1-14.9c2.3-47-63.1-85.5-43.5-132.9c5.8-13.9,16.4-26.7,21.1-40.8
			c19.2-0.7,28.8-1,48-1.7c-0.8,2.8-6.4,14.7-16.9,35.4c-14.4,28.4-0.7,50.4,17,76.3c12.8,18.8,32,40.5,27.3,60.4
			c-6.2,26.6-24.8,53.5-32,82.2C760.1,306.8,747.5,345.8,706.3,346L706.3,346z"/>
		<path class="st7" d="M836,344.2c-6.8,0-13.4-1.5-19.7-4.5c-6.4-3-11.3-6.1-14.8-9.2c-3.5-3.2-7.9-7.7-13.2-13.5
			c-5.4-5.9-8.9-9.7-10.8-11.5c8.6-19.9,14.2-44.1,32.9-61.2c6.4,6.8,14.2,10.6,21.6,10.6c7,0,15-2.9,25.2-8.2
			c10.2-5.3,17.7-11.5,21.9-19.2c0.6-1.2,1.2-2.4,1.7-3.8c0.5-1.4,0.8-3.4,0.7-5.9c-0.1-2.6-0.9-4.9-2.3-7.1
			c-1.4-2.2-4.1-4.3-8.2-6.4c-4.1-2.1-9.1-3.7-14.8-4.5c-12.8-1.8-21.6-7-32.1-18.3c-16.8-18.2-33.7-38.3-44.4-57.3
			c-19.1-33.8,2.5-61.1,44.7-85.3c13-7.3,24.6-12,36.7-13.4s22.5-0.9,31,1.7c8.4,2.6,16,6.3,22,10.9c-2.4,3.1-3.7,4.6-6.4,7.7
			c-16.4,17.9-38.5,37.4-38,59.5c-7.4-4.8-12.4-7-16.6-7c-6,0-10.4,1.2-12.9,3.9c-2.5,2.7-3.3,5-2.9,6.8c0.4,1.8,1.2,3.8,2.4,6
			c6.5,12.7,19.3,22.9,33.1,29.1c24.7,11,49.3,27,62.4,45.2c11.1,15.5,6.7,32.8-1.6,48c-8.2,15-11.4,31.3-16.3,47.2
			c-4.5,14.5-11.1,25.8-17.9,33.1c-6.8,7.4-14.8,13.2-24.1,17.6c-9.2,4.4-16.8,7-22.5,7.9C847.3,343.8,841.6,344.2,836,344.2
			L836,344.2z"/>
	</mask>
	<path class="st16" d="M706.3,346c-12.6,0.1-23.6-2.4-32.5-7.2c-8.9-4.8-15.8-10.8-20.7-17.8c-4.8-7.1-8.6-16.9-11.2-29.5
		c-2.7-12.6-5.4-25.1-3.9-35.1c1.5-10,8-20.6,14.8-34.3c1.9-3.8,7.9-11.4,7.1-26.3c-0.8-14.7-10.9-29.3-20.4-42.7
		c-13.6-19.9-37.3-45.6-29.7-68.8c7-18.3,19.3-35.4,25.3-53.9c4.5,0,14-0.2,28.5-0.6c14.5-0.4,22.3-0.6,23.6-0.6
		c-1.9,8.5-5.7,15.6-9.4,21.8c-3.7,6.2-11.9,16.6-16.5,32.7c-5.4,19,7.4,37.3,18.6,54.1c21.6,32.5,39.5,58.3,23,93.7
		c-2.5,5.5-3.6,9.9-3.3,13c0.3,3.2,1,5,1.9,5.4c0.9,0.4,2.1,0.6,3.5,0.6c4.3,0,8.3-1.5,12.2-4.3c3.9-2.8,7.8-6.7,11.7-11.6
		c3.9-4.9,7.2-9.2,9.5-13.1c2.3-3.9,4.7-8.7,6.1-14.9c2.3-47-63.1-85.5-43.5-132.9c5.8-13.9,16.4-26.7,21.1-40.8
		c19.2-0.7,28.8-1,48-1.7c-0.8,2.8-6.4,14.7-16.9,35.4c-14.4,28.4-0.7,50.4,17,76.3c12.8,18.8,32,40.5,27.3,60.4
		c-6.2,26.6-24.8,53.5-32,82.2C760.1,306.8,747.5,345.8,706.3,346L706.3,346z"/>
	<defs>
		
			<filter id="Adobe_OpacityMaskFilter_00000047043265612021429740000008008118621059283603_" filterUnits="userSpaceOnUse" x="769.1" y="21" width="176.4" height="326.8">
			<feColorMatrix  type="matrix" values="1 0 0 0 0  0 1 0 0 0  0 0 1 0 0  0 0 0 1 0"/>
		</filter>
	</defs>
	
		<mask maskUnits="userSpaceOnUse" x="769.1" y="21" width="176.4" height="326.8" id="path-2-inside-1_156_24_00000116955247947916318140000007005500597532648582_">
		<path style="fill:#FFFFFF;filter:url(#Adobe_OpacityMaskFilter_00000047043265612021429740000008008118621059283603_);" d="
			M71.7,344.7c-9.2,0.3-17.4-1.5-24.4-5.4c-7-3.9-12.7-9.1-17.1-15.6c-4.4-6.5-8.1-14.4-10.9-23.9c-2.9-9.5-4.9-19.2-6.2-29.3
			c-1.2-10.1,0.2-20.2,4.6-29.9c3.8-8.2,9-16.2,13-25.4c15.2-0.6,22.7-0.9,37.9-1.5c-0.2,0.9-0.3,1.4-0.5,2.2
			c-0.3,1.2-0.7,3.3-1.5,6c-0.7,2.7-1.5,5.4-2.2,8.2C62.3,238,64,242,69.1,242H71c4.4,0.2,10-2.8,17.3-8.8
			c6.4-5.3,11.3-10.8,13.6-16.9c3.1-8.1,4.8-12.2,3.4-22.6c-2.5-14.5-12.6-28.1-21.3-41.3C65.2,125.6,42.4,98.3,59,68.3
			c-4,0.2-6,0.2-10.1,0.4c8.7-18.5,14.3-28,14.8-29.1c1.2-2.8,1.8-4.2,2.7-7c22.6-1.7,45.3-3.4,67.9-5.1c-2.5,13.9-7.3,20-14.2,32.8
			h-0.3c-4.6,0.5-6.9,0.7-11.5,1.2c-30.2,53.9,42.3,86,42.7,137.2c-4.2,20.2-18,39.5-22.6,58.1c-3.9,16.1-5.2,35.5-10.5,52.2
			c-4.6,14.5-17,34.1-42.9,35.6L71.7,344.7L71.7,344.7z"/>
		<path class="st7" d="M223,348.8c-11.2-0.1-21.2-3.1-29.6-9.2c-8.4-6.2-14.9-13.6-19.3-22.3c-4.4-8.7-8-19.2-10.6-31.6
			c-2.7-12.3-4.9-23.4-3.5-31.4c1.3-8,5-15.4,9.3-23c1.8-3.2,3.7-6.6,5.4-10.1c1.2-2.3,1.8-3.4,2.9-5.8c2.7-6.9,6.6-15.7,1.2-30.2
			c-5.3-14.5-14.6-26.5-18.7-32.6c-12.5-18.4-30.6-39.1-28.6-59.4c1.1-11.4,9.4-21.9,19-32c10.2-10.7,23.6-21.3,37.5-30
			c12.7-8,23.2-12.4,34.5-12.4c22.7,0.1,37.6,10.8,42.4,24.9c3.2,9.6-1.4,19.9-2,29.4c-1.2,18.5,2.5,31.2,12,49.3
			c11.7,18.6,28.5,37.9,35.8,55.5c11.5,27.7-11.1,49.8-18.1,77.5c-5.7,22.7-5.5,49-19.8,71.4C264.1,340.2,245.1,348.9,223,348.8
			L223,348.8z M226.5,219.6c-1,2.2-2.1,4.6-3.4,7.2c-1.2,2.7-2.6,5.9-3.8,9.7c-1.2,3.8-1.4,7.1-0.7,9.6c0.8,2.6,2.6,3.9,5.3,3.9h0.6
			c5.6,0,10.5-4,16.1-11.1c5.7-7.2,15.3-16.8,18.8-34.3c1.2-6.1,1.7-9.3-0.4-16.8c-10.1-23.3-46.5-90-64-91.2
			c-10.7-0.7-0.2,30.7,5.7,40.5C218.5,163.2,241.8,190.5,226.5,219.6L226.5,219.6z"/>
		<path class="st7" d="M300.8,51.6c0.7-1.3,2.5-4.2,4.8-8.8c2.3-4.6,3.7-8.3,4.6-11.1h42.2c3.1,0.2,4.7,0.3,7.9,0.4
			c1.4,0.2,2.1,0.3,3.6,0.4c-6.9,15-15.3,29.4-22.9,44.2c-6.4,15.4-2,27.6,4.9,42.6c1.7,3,2.6,4.5,4.6,7.6
			c16.9,24.9,42.4,52.1,37,80.4c-3.5,18.8-16.8,36.1-21.1,54.9c-0.4,26.6,0,53.1,0.1,79.7c-21,0.9-31.4,1.4-52.4,2.3h-4.3
			c0.2-24.6-1-49.5,0.6-74.1c1.4-21.8,15.7-38.5,21.5-59.4c7.5-26.9-13.1-50-28.7-74.1C282.7,105.1,282.5,83.6,300.8,51.6
			L300.8,51.6z"/>
		<path class="st7" d="M399.1,343.8c-1.2,0-2.1-0.1-2.5-0.2c-0.4-0.1-0.7-0.2-0.9-0.2c0-3.3-0.2-8.3-0.5-14.9
			c-0.3-6.6-0.6-11.6-0.8-14.9c-0.1-21.6-3.8-44.9,3.6-66.1c7.2-20.8,18.1-36.3,18.1-58.1c-6.7-22.8-27.5-44.8-39.3-65.3
			c-10.3-18-14.9-33.9-5.4-53.4c2.3-4.8,5.8-11.1,9.9-19.1c4-7.9,7-14.8,8.7-20.7c19.5,0.8,38.9,1.7,58.4,2.5
			c0.6,23.7-9.7,45.9,2.2,69.1c17.1,33.5,57.1,60.6,76.3,94c-2.3-33.9-38.8-62.5-48-95.5c0.5-19.4,7.5-34.4,18.6-52.2
			c1.4-2.6,2.8-5.3,4.1-7.8c1.3-2.6,2.8-5.9,3.9-10.1c8.9-0.7,13.4-1,22.3-1.7c11.9-0.3,17.9-0.5,29.8-0.9c-1,4.8-1.8,7.1-3.7,11.7
			c-9.6,19.2-23.2,37.6-24.2,56.2c-1.6,33.4,52.7,69.2,47.2,103.2c-3.6,21.9-27.6,47.1-27.5,70.9c0,5.9-0.3,14.9-0.3,26.6v39.7
			c-11.5,0-21.2-0.1-29.1-0.2c-7.9-0.1-13.3-0.3-16-0.5c-2.8-0.1-4.4-0.2-4.8-0.2h-2.5c-14.9-42.9-24.7-80.4-26-124.2
			c-16.2,36.1-21.6,62.2-21.8,100.3v19.8c0,4.2-0.1,8-0.3,11.3C428.9,343.3,419,343.4,399.1,343.8L399.1,343.8z"/>
		<path class="st7" d="M706.3,346c-12.6,0.1-23.6-2.4-32.5-7.2c-8.9-4.8-15.8-10.8-20.7-17.8c-4.8-7.1-8.6-16.9-11.2-29.5
			c-2.7-12.6-5.4-25.1-3.9-35.1c1.5-10,8-20.6,14.8-34.3c1.9-3.8,7.9-11.4,7.1-26.3c-0.8-14.7-10.9-29.3-20.4-42.7
			c-13.6-19.9-37.3-45.6-29.7-68.8c7-18.3,19.3-35.4,25.3-53.9c4.5,0,14-0.2,28.5-0.6c14.5-0.4,22.3-0.6,23.6-0.6
			c-1.9,8.5-5.7,15.6-9.4,21.8c-3.7,6.2-11.9,16.6-16.5,32.7c-5.4,19,7.4,37.3,18.6,54.1c21.6,32.5,39.5,58.3,23,93.7
			c-2.5,5.5-3.6,9.9-3.3,13c0.3,3.2,1,5,1.9,5.4c0.9,0.4,2.1,0.6,3.5,0.6c4.3,0,8.3-1.5,12.2-4.3c3.9-2.8,7.8-6.7,11.7-11.6
			c3.9-4.9,7.2-9.2,9.5-13.1c2.3-3.9,4.7-8.7,6.1-14.9c2.3-47-63.1-85.5-43.5-132.9c5.8-13.9,16.4-26.7,21.1-40.8
			c19.2-0.7,28.8-1,48-1.7c-0.8,2.8-6.4,14.7-16.9,35.4c-14.4,28.4-0.7,50.4,17,76.3c12.8,18.8,32,40.5,27.3,60.4
			c-6.2,26.6-24.8,53.5-32,82.2C760.1,306.8,747.5,345.8,706.3,346L706.3,346z"/>
		<path class="st7" d="M836,344.2c-6.8,0-13.4-1.5-19.7-4.5c-6.4-3-11.3-6.1-14.8-9.2c-3.5-3.2-7.9-7.7-13.2-13.5
			c-5.4-5.9-8.9-9.7-10.8-11.5c8.6-19.9,14.2-44.1,32.9-61.2c6.4,6.8,14.2,10.6,21.6,10.6c7,0,15-2.9,25.2-8.2
			c10.2-5.3,17.7-11.5,21.9-19.2c0.6-1.2,1.2-2.4,1.7-3.8c0.5-1.4,0.8-3.4,0.7-5.9c-0.1-2.6-0.9-4.9-2.3-7.1
			c-1.4-2.2-4.1-4.3-8.2-6.4c-4.1-2.1-9.1-3.7-14.8-4.5c-12.8-1.8-21.6-7-32.1-18.3c-16.8-18.2-33.7-38.3-44.4-57.3
			c-19.1-33.8,2.5-61.1,44.7-85.3c13-7.3,24.6-12,36.7-13.4s22.5-0.9,31,1.7c8.4,2.6,16,6.3,22,10.9c-2.4,3.1-3.7,4.6-6.4,7.7
			c-16.4,17.9-38.5,37.4-38,59.5c-7.4-4.8-12.4-7-16.6-7c-6,0-10.4,1.2-12.9,3.9c-2.5,2.7-3.3,5-2.9,6.8c0.4,1.8,1.2,3.8,2.4,6
			c6.5,12.7,19.3,22.9,33.1,29.1c24.7,11,49.3,27,62.4,45.2c11.1,15.5,6.7,32.8-1.6,48c-8.2,15-11.4,31.3-16.3,47.2
			c-4.5,14.5-11.1,25.8-17.9,33.1c-6.8,7.4-14.8,13.2-24.1,17.6c-9.2,4.4-16.8,7-22.5,7.9C847.3,343.8,841.6,344.2,836,344.2
			L836,344.2z"/>
	</mask>
	<path class="st18" d="M836,344.2c-6.8,0-13.4-1.5-19.7-4.5c-6.4-3-11.3-6.1-14.8-9.2c-3.5-3.2-7.9-7.7-13.2-13.5
		c-5.4-5.9-8.9-9.7-10.8-11.5c8.6-19.9,14.2-44.1,32.9-61.2c6.4,6.8,14.2,10.6,21.6,10.6c7,0,15-2.9,25.2-8.2
		c10.2-5.3,17.7-11.5,21.9-19.2c0.6-1.2,1.2-2.4,1.7-3.8c0.5-1.4,0.8-3.4,0.7-5.9c-0.1-2.6-0.9-4.9-2.3-7.1
		c-1.4-2.2-4.1-4.3-8.2-6.4c-4.1-2.1-9.1-3.7-14.8-4.5c-12.8-1.8-21.6-7-32.1-18.3c-16.8-18.2-33.7-38.3-44.4-57.3
		c-19.1-33.8,2.5-61.1,44.7-85.3c13-7.3,24.6-12,36.7-13.4s22.5-0.9,31,1.7c8.4,2.6,16,6.3,22,10.9c-2.4,3.1-3.7,4.6-6.4,7.7
		c-16.4,17.9-38.5,37.4-38,59.5c-7.4-4.8-12.4-7-16.6-7c-6,0-10.4,1.2-12.9,3.9c-2.5,2.7-3.3,5-2.9,6.8c0.4,1.8,1.2,3.8,2.4,6
		c6.5,12.7,19.3,22.9,33.1,29.1c24.7,11,49.3,27,62.4,45.2c11.1,15.5,6.7,32.8-1.6,48c-8.2,15-11.4,31.3-16.3,47.2
		c-4.5,14.5-11.1,25.8-17.9,33.1c-6.8,7.4-14.8,13.2-24.1,17.6c-9.2,4.4-16.8,7-22.5,7.9C847.3,343.8,841.6,344.2,836,344.2
		L836,344.2z"/>
</g>
</svg>
