<svg width="1920" height="988" viewBox="0 0 1920 988" fill="none" xmlns="http://www.w3.org/2000/svg">
<path d="M625.804 194.391H550.279M474.753 194.391H550.279M452.147 194.391H404.366M358.126 194.391H187.038M550.279 194.391V150.206M574.426 150.206H452.147M404.366 150.206H452.147M452.147 150.206V114.242M642.245 103.453H544.627M240.47 103.453H333.978M333.978 103.453V54.6436M333.978 103.453H544.627M544.627 103.453V54.6436M544.627 54.6436H585.73M544.627 54.6436H424.66M304.693 54.6436H424.66M424.66 54.6436V12H170.597M617.07 12H494.791" stroke="black" stroke-width="3" stroke-linecap="round"/>
<path d="M808.709 219.566H884.234M959.76 219.566H884.234M982.366 219.566H1030.15M1076.39 219.566H1247.48M884.234 219.566V263.751M860.087 263.751H982.366M1030.15 263.751H982.366M982.366 263.751V299.716M792.268 310.505H889.886M1194.04 310.505H1100.54M1100.54 310.505V359.314M1100.54 310.505H889.886M889.886 310.505V359.314M889.886 359.314H848.784M889.886 359.314H1009.85M1129.82 359.314H1009.85M1009.85 359.314V401.958H1263.92M817.443 401.958H939.722" stroke="black" stroke-width="3" stroke-linecap="round"/>
<path d="M591.895 638.81H667.42M742.946 638.81H667.42M765.552 638.81H813.333M859.574 638.81H1030.66M667.42 638.81V682.995M643.273 682.995H765.552M813.333 682.995H765.552M765.552 682.995V718.959M575.454 729.748H673.072M977.229 729.748H883.721M883.721 729.748V778.557M883.721 729.748H673.072M673.072 729.748V778.557M673.072 778.557H631.97M673.072 778.557H793.039M913.006 778.557H793.039M793.039 778.557V821.201H1047.1M600.629 821.201H722.908" stroke="black" stroke-width="3" stroke-linecap="round"/>
<path d="M1489.98 14.055H1565.5M1641.03 14.055H1565.5M1663.64 14.055H1711.42M1757.66 14.055H1928.75M1565.5 14.055V58.2399M1541.36 58.2399H1663.64M1711.42 58.2399H1663.64M1663.64 58.2399V94.2044M1473.54 104.994H1571.16M1875.31 104.994H1781.81M1781.81 104.994V153.803M1781.81 104.994H1571.16M1571.16 104.994V153.803M1571.16 153.803H1530.05M1571.16 153.803H1691.12M1811.09 153.803H1691.12M1691.12 153.803V196.446H1945.19M1498.71 196.446H1620.99" stroke="black" stroke-width="3" stroke-linecap="round"/>
<path d="M1666.72 358.287H1742.24M1817.77 358.287H1742.24M1840.38 358.287H1888.16M1934.4 358.287H2105.48M1742.24 358.287V402.472M1718.1 402.472H1840.38M1888.16 402.472H1840.38M1840.38 402.472V438.436M1650.28 449.225H1747.9M2052.05 449.225H1958.54M1958.54 449.225V498.034M1958.54 449.225H1747.9M1747.9 449.225V498.034M1747.9 498.034H1706.79M1747.9 498.034H1867.86M1987.83 498.034H1867.86M1867.86 498.034V540.678H2121.93M1675.45 540.678H1797.73" stroke="black" stroke-width="3" stroke-linecap="round"/>
<path opacity="0.2" d="M333.978 51.6436H330.978V54.6436V103.453V106.453H333.978H544.627H547.627V103.453V54.6436V51.6436H544.627H424.66H333.978Z" stroke="#8E8D83" stroke-width="6" stroke-linecap="round"/>
<path opacity="0.2" d="M1100.27 361.748H1103.27V358.748V309.939V306.939H1100.27H889.618H886.618V309.939V358.748V361.748H889.618H1009.59H1100.27Z" stroke="#8E8D83" stroke-width="6" stroke-linecap="round"/>
<path opacity="0.2" d="M1958.54 501.034H1961.54V498.034V449.225V446.225H1958.54H1747.9H1744.9V449.225V498.034V501.034H1747.9H1867.86H1958.54Z" stroke="#8E8D83" stroke-width="6" stroke-linecap="round"/>
<path d="M1612.26 555.578H1687.79M1763.31 555.578H1687.79M1785.92 555.578H1833.7M1879.94 555.578H2051.03M1687.79 555.578V599.762M1663.64 599.762H1785.92M1833.7 599.762H1785.92M1785.92 599.762V635.727M1595.82 646.516H1693.44M1997.59 646.516H1904.09M1904.09 646.516V695.325M1904.09 646.516H1693.44M1693.44 646.516V695.325M1693.44 695.325H1652.34M1693.44 695.325H1813.4M1933.37 695.325H1813.4M1813.4 695.325V737.969H2067.47M1620.99 737.969H1743.27" stroke="black" stroke-width="3" stroke-linecap="round"/>
<path d="M1405.72 819.659H1481.25M1556.77 819.659H1481.25M1579.38 819.659H1627.16M1673.4 819.659H1844.49M1481.25 819.659V863.844M1457.1 863.844H1579.38M1627.16 863.844H1579.38M1579.38 863.844V899.809M1389.28 910.598H1486.9M1791.05 910.598H1697.55M1697.55 910.598V959.407M1697.55 910.598H1486.9M1486.9 910.598V959.407M1486.9 959.407H1445.8M1486.9 959.407H1606.86M1726.83 959.407H1606.86M1606.86 959.407V1002.05H1860.93M1414.45 1002.05H1536.73" stroke="black" stroke-width="3" stroke-linecap="round"/>
<path d="M305.208 255.531H229.682M154.157 255.531H229.682M131.55 255.531H83.7691M37.529 255.531H-133.559M229.682 255.531V299.716M253.83 299.716H131.55M83.7691 299.716H131.55M131.55 299.716V335.68M321.648 346.47H224.031M-80.1262 346.47H13.3814M13.3814 346.47V395.279M13.3814 346.47H224.031M224.031 346.47V395.279M224.031 395.279H265.133M224.031 395.279H104.063M-15.9039 395.279H104.063M104.063 395.279V437.922H-150M296.473 437.922H174.194" stroke="black" stroke-width="3" stroke-linecap="round"/>
<path d="M170.208 11H94.6821M19.1567 11H94.6821M-3.44954 11H-51.2309M-97.471 11H-268.559M94.6821 11V55.1849M118.83 55.1849H-3.44954M-51.2309 55.1849H-3.44954M-3.44954 55.1849V91.1494M186.648 101.939H89.0306M-215.126 101.939H-121.619M-121.619 101.939V150.748M-121.619 101.939H89.0306M89.0306 101.939V150.748M89.0306 150.748H130.133M89.0306 150.748H-30.9367M-150.904 150.748H-30.9367M-30.9367 150.748V193.391H-285M161.473 193.391H39.1941" stroke="black" stroke-width="3" stroke-linecap="round"/>
<path d="M1335.21 -7H1259.68M1184.16 -7H1259.68M1161.55 -7H1113.77M1067.53 -7H896.441M1259.68 -7V37.1849M1283.83 37.1849H1161.55M1113.77 37.1849H1161.55M1161.55 37.1849V73.1494M1351.65 83.9388H1254.03M949.874 83.9388H1043.38M1043.38 83.9388V132.748M1043.38 83.9388H1254.03M1254.03 83.9388V132.748M1254.03 132.748H1295.13M1254.03 132.748H1134.06M1014.1 132.748H1134.06M1134.06 132.748V175.391H880M1326.47 175.391H1204.19" stroke="black" stroke-width="3" stroke-linecap="round"/>
<path d="M154.208 505H78.6821M3.1567 505H78.6821M-19.4495 505H-67.2309M-113.471 505H-284.559M78.6821 505V549.185M102.83 549.185H-19.4495M-67.2309 549.185H-19.4495M-19.4495 549.185V585.149M170.648 595.939H73.0306M-231.126 595.939H-137.619M-137.619 595.939V644.748M-137.619 595.939H73.0306M73.0306 595.939V644.748M73.0306 644.748H114.133M73.0306 644.748H-46.9367M-166.904 644.748H-46.9367M-46.9367 644.748V687.391H-301M145.473 687.391H23.1941" stroke="black" stroke-width="3" stroke-linecap="round"/>
<path d="M1276.21 854H1200.68M1125.16 854H1200.68M1102.55 854H1054.77M1008.53 854H837.441M1200.68 854V898.185M1224.83 898.185H1102.55M1054.77 898.185H1102.55M1102.55 898.185V934.149M1292.65 944.939H1195.03M890.874 944.939H984.381M984.381 944.939V993.748M984.381 944.939H1195.03M1195.03 944.939V993.748M1195.03 993.748H1236.13M1195.03 993.748H1075.06M955.096 993.748H1075.06M1075.06 993.748V1036.39H821M1267.47 1036.39H1145.19" stroke="black" stroke-width="3" stroke-linecap="round"/>
<path d="M133.208 846H57.6821M-17.8433 846H57.6821M-40.4495 846H-88.2309M-134.471 846H-305.559M57.6821 846V890.185M81.8297 890.185H-40.4495M-88.2309 890.185H-40.4495M-40.4495 890.185V926.149M149.648 936.939H52.0306M-252.126 936.939H-158.619M-158.619 936.939V985.748M-158.619 936.939H52.0306M52.0306 936.939V985.748M52.0306 985.748H93.1328M52.0306 985.748H-67.9367M-187.904 985.748H-67.9367M-67.9367 985.748V1028.39H-322M124.473 1028.39H2.19406" stroke="black" stroke-width="3" stroke-linecap="round"/>
<path d="M570.316 511.393H494.791M419.266 511.393H494.791M396.659 511.393H348.878M302.638 511.393H131.55M494.791 511.393V555.577M518.939 555.577H396.659M348.878 555.577H396.659M396.659 555.577V591.542M586.757 602.331H489.139M184.983 602.331H278.49M278.49 602.331V651.14M278.49 602.331H489.139M489.139 602.331V651.14M489.139 651.14H530.242M489.139 651.14H369.172M249.205 651.14H369.172M369.172 651.14V693.784H115.109M561.582 693.784H439.303" stroke="black" stroke-width="3" stroke-linecap="round"/>
<path d="M397.687 269.917H473.213M548.738 269.917H473.213M571.345 269.917H619.126M665.366 269.917H836.454M473.213 269.917V314.102M449.065 314.102H571.345M619.126 314.102H571.345M571.345 314.102V350.066M381.247 360.855H478.864M783.021 360.855H689.514M689.514 360.855V409.664M689.514 360.855H478.864M478.864 360.855V409.664M478.864 409.664H437.762M478.864 409.664H598.832M718.799 409.664H598.832M598.832 409.664V452.308H852.895M406.422 452.308H528.701" stroke="black" stroke-width="3" stroke-linecap="round"/>
<path d="M166.487 754.923H242.012M317.538 754.923H242.012M340.144 754.923H387.925M434.165 754.923H605.253M242.012 754.923V799.108M217.865 799.108H340.144M387.925 799.108H340.144M340.144 799.108V835.073M150.046 845.862H247.664M551.821 845.862H458.313M458.313 845.862V894.671M458.313 845.862H247.664M247.664 845.862V894.671M247.664 894.671H206.562M247.664 894.671H367.631M487.598 894.671H367.631M367.631 894.671V937.315H621.694M175.221 937.315H297.5" stroke="black" stroke-width="3" stroke-linecap="round"/>
</svg>
