<svg width="121" height="122" viewBox="0 0 121 122" fill="none" xmlns="http://www.w3.org/2000/svg">
<path d="M61.0212 2.28137C93.4557 2.2056 119.732 28.4429 119.71 60.8846C119.688 93.3263 93.3771 119.686 60.9425 119.762C28.508 119.838 2.23183 93.6007 2.25355 61.159C2.27527 28.7173 28.5867 2.35715 61.0212 2.28137Z" fill="white" stroke="black" stroke-width="2.45904"/>
<path d="M60.8936 16.4151C85.4722 16.3575 105.384 36.2399 105.368 60.824C105.352 85.4081 85.413 105.384 60.8344 105.441C36.2557 105.499 16.3437 85.6164 16.3601 61.0323C16.3764 36.4482 36.3149 16.4726 60.8936 16.4151Z" fill="#1C1F25" stroke="black" stroke-width="1.84428"/>
<path d="M77.3769 44.9375L83.7704 46.3895L66.1964 58.8807L77.7247 83.9228L64.8578 81.0007L57.7566 65.7862L43.2485 76.0932L36.8515 74.6405L55.6495 61.2794L44.5387 37.4817L57.7322 40.478L64.1215 54.3615L77.3769 44.9375ZM67.4869 77.6485L71.0293 78.453L54.9888 43.5962L51.1874 42.7329L67.4869 77.6485Z" fill="white"/>
</svg>
